<?xml version="1.0" encoding="utf-8"?>
<!-- Generator: Adobe Illustrator 25.1.0, SVG Export Plug-In . SVG Version: 6.00 Build 0)  -->
<svg version="1.1" xmlns="http://www.w3.org/2000/svg" xmlns:xlink="http://www.w3.org/1999/xlink" x="0px" y="0px"
	 viewBox="0 0 1000 1000" style="enable-background:new 0 0 1000 1000;" xml:space="preserve">
<style type="text/css">
	.st0{opacity:0.4;}
	.st1{enable-background:new    ;}
	.st2{clip-path:url(#SVGID_2_);}
	.st3{fill:#4B25B7;}
	.st4{opacity:0.2;}
	.st5{clip-path:url(#SVGID_4_);}
	.st6{fill:#37B5F4;}
	.st7{clip-path:url(#SVGID_6_);}
	.st8{fill:#7CE7F2;}
	.st9{clip-path:url(#SVGID_8_);}
	.st10{clip-path:url(#SVGID_10_);}
	.st11{clip-path:url(#SVGID_12_);}
	.st12{clip-path:url(#SVGID_14_);}
	.st13{clip-path:url(#SVGID_16_);}
	.st14{clip-path:url(#SVGID_18_);}
	.st15{clip-path:url(#SVGID_20_);}
	.st16{clip-path:url(#SVGID_22_);}
	.st17{fill:#2833C0;}
	.st18{clip-path:url(#SVGID_24_);}
	.st19{clip-path:url(#SVGID_26_);}
	.st20{clip-path:url(#SVGID_30_);}
	.st21{clip-path:url(#SVGID_32_);}
	.st22{clip-path:url(#SVGID_34_);}
	.st23{clip-path:url(#SVGID_36_);}
	.st24{clip-path:url(#SVGID_38_);}
	.st25{clip-path:url(#SVGID_40_);}
	.st26{clip-path:url(#SVGID_44_);}
	.st27{clip-path:url(#SVGID_46_);}
	.st28{clip-path:url(#SVGID_48_);}
	.st29{fill:none;stroke:#2833C0;stroke-width:3;stroke-miterlimit:10;}
	.st30{fill:none;stroke:url(#SVGID_49_);stroke-width:3;stroke-linecap:round;stroke-miterlimit:10;}
	.st31{fill:none;stroke:url(#SVGID_50_);stroke-width:3;stroke-linecap:round;stroke-miterlimit:10;}
	.st32{clip-path:url(#SVGID_52_);}
	.st33{clip-path:url(#SVGID_54_);}
	.st34{clip-path:url(#SVGID_56_);}
	.st35{clip-path:url(#SVGID_58_);}
	.st36{clip-path:url(#SVGID_60_);}
	.st37{clip-path:url(#SVGID_62_);}
	.st38{clip-path:url(#SVGID_64_);}
	.st39{clip-path:url(#SVGID_66_);}
	.st40{clip-path:url(#SVGID_68_);}
	.st41{clip-path:url(#SVGID_70_);}
	.st42{clip-path:url(#SVGID_72_);}
	.st43{clip-path:url(#SVGID_74_);}
	.st44{clip-path:url(#SVGID_76_);}
	.st45{clip-path:url(#SVGID_78_);}
	.st46{fill:#C92F5B;stroke:#4CF2E2;stroke-width:4;stroke-linecap:round;stroke-linejoin:round;stroke-miterlimit:10;}
	.st47{fill:none;stroke:#FFFFFF;stroke-width:7.536;stroke-miterlimit:10;}
	.st48{clip-path:url(#SVGID_80_);}
	.st49{fill:#0DCC87;}
	.st50{fill:#4CF2E2;}
	.st51{fill:#FFFFFF;}
	.st52{clip-path:url(#SVGID_82_);}
	.st53{clip-path:url(#SVGID_84_);}
	.st54{opacity:0.2;fill:#37B5F4;}
	.st55{fill:#EDCC45;}
	.st56{fill:#D852EF;}
	.st57{clip-path:url(#SVGID_86_);}
	.st58{clip-path:url(#SVGID_88_);}
	.st59{clip-path:url(#SVGID_90_);}
	.st60{fill:#337CF2;}
	.st61{fill:#F4CCB8;}
	.st62{fill:#256ED8;}
	.st63{fill:#23283F;}
	.st64{fill:#E2A333;}
	.st65{fill:#D3AA9B;}
	.st66{fill:none;stroke:#4CF2E2;stroke-width:0.5;stroke-linejoin:round;stroke-miterlimit:10;}
	.st67{fill:none;stroke:#337CF2;stroke-width:0.75;stroke-miterlimit:10;}
	.st68{fill:none;stroke:#7CE7F2;stroke-width:0.5;stroke-miterlimit:10;}
	.st69{fill:#1D65BC;}
	.st70{fill:#155284;}
	.st71{fill:#5ADCE2;}
	.st72{fill:none;stroke:#7CE7F2;stroke-width:0.75;stroke-miterlimit:10;}
	.st73{fill:#438AEF;}
	.st74{fill:none;stroke:#337CF2;stroke-width:0.5;stroke-miterlimit:10;}
	.st75{fill:none;stroke:#337CF2;stroke-width:0.5;stroke-linecap:round;stroke-miterlimit:10;}
	.st76{fill:none;stroke:#155284;stroke-linecap:round;stroke-miterlimit:10;}
</style>
<g id="Layer_1">
</g>
<g id="Layer_12">
	<g class="st0">
		<g>
			<g class="st1">
				<defs>
					<polygon id="SVGID_1_" class="st1" points="273.9,523 273.4,338.7 464.7,228.2 465.3,412.5 					"/>
				</defs>
				<clipPath id="SVGID_2_">
					<use xlink:href="#SVGID_1_"  style="overflow:visible;"/>
				</clipPath>
				<g class="st2">
					<g>
						<g>
							<g>
								<path class="st3" d="M460.5,230.7L277.6,336.3c-2.3,1.3-4.2,4.6-4.2,7.3l0.5,174.6c0,2.7,1.9,3.8,4.2,2.4L461,415
									c2.3-1.3,4.2-4.6,4.2-7.3l-0.5-174.6C464.8,230.4,462.8,229.3,460.5,230.7"/>
							</g>
						</g>
					</g>
				</g>
			</g>
		</g>
	</g>
	<g class="st4">
		<g>
			<g class="st1">
				<defs>
					<polygon id="SVGID_3_" class="st1" points="183,372.4 182.7,275.3 261.9,229.6 262.2,326.6 					"/>
				</defs>
				<clipPath id="SVGID_4_">
					<use xlink:href="#SVGID_3_"  style="overflow:visible;"/>
				</clipPath>
				<g class="st5">
					<g>
						<g>
							<g>
								<path class="st6" d="M258.4,231.6l-72.1,41.7c-2,1.1-3.5,3.9-3.5,6.1l0.3,88.9c0,2.3,1.6,3.2,3.6,2l72.1-41.7
									c2-1.1,3.5-3.9,3.5-6.1l-0.3-88.9C262,231.4,260.4,230.5,258.4,231.6"/>
							</g>
						</g>
					</g>
				</g>
			</g>
		</g>
	</g>
	<g>
		<g>
			<g class="st1">
				<defs>
					<polygon id="SVGID_5_" class="st1" points="168.3,373.6 168,274.9 248.6,228.3 248.9,327 					"/>
				</defs>
				<clipPath id="SVGID_6_">
					<use xlink:href="#SVGID_5_"  style="overflow:visible;"/>
				</clipPath>
				<g class="st7">
					<g>
						<g>
							<g>
								<path class="st8" d="M172.5,369.5c-1.6,0.9-2.8,0.2-2.8-1.6l-0.3-88.9c0-1.8,1.3-4,2.8-4.9l72.1-41.7
									c1.6-0.9,2.8-0.2,2.8,1.6l0.3,88.9c0,1.8-1.3,4-2.8,4.9L172.5,369.5 M244.4,230.8l-72.1,41.7c-2.3,1.4-4.3,4.7-4.2,7.3
									l0.3,88.9c0,2.7,1.9,3.8,4.3,2.4l72.1-41.7c2.3-1.4,4.3-4.7,4.2-7.3l-0.3-88.9C248.6,230.5,246.7,229.4,244.4,230.8"/>
							</g>
						</g>
					</g>
				</g>
			</g>
		</g>
	</g>
	<g class="st4">
		<g>
			<g class="st1">
				<defs>
					<polygon id="SVGID_7_" class="st1" points="96.2,441.4 96,378.7 147.1,349.2 147.3,411.9 					"/>
				</defs>
				<clipPath id="SVGID_8_">
					<use xlink:href="#SVGID_7_"  style="overflow:visible;"/>
				</clipPath>
				<g class="st9">
					<g>
						<g>
							<g>
								<path class="st6" d="M143.6,351.3l-44,25.4c-2,1.1-3.5,3.9-3.5,6.1l0.2,54.5c0,2.3,1.6,3.2,3.6,2l44-25.4
									c2-1.1,3.5-3.9,3.5-6.1l-0.2-54.5C147.2,351.1,145.6,350.2,143.6,351.3"/>
							</g>
						</g>
					</g>
				</g>
			</g>
		</g>
	</g>
	<g>
		<g>
			<g class="st1">
				<defs>
					<polygon id="SVGID_9_" class="st1" points="86.5,442.6 86.3,378.3 138.8,348 139,412.3 					"/>
				</defs>
				<clipPath id="SVGID_10_">
					<use xlink:href="#SVGID_9_"  style="overflow:visible;"/>
				</clipPath>
				<g class="st10">
					<g>
						<g>
							<g>
								<path class="st8" d="M90.7,438.5c-1.6,0.9-2.8,0.2-2.9-1.6l-0.2-54.5c0-1.8,1.3-4,2.8-4.9l44-25.4c1.6-0.9,2.8-0.2,2.9,1.6
									l0.2,54.5c0,1.8-1.3,4-2.8,4.9L90.7,438.5 M134.6,350.5l-44,25.4c-2.3,1.4-4.3,4.7-4.2,7.3l0.2,54.5c0,2.7,1.9,3.8,4.3,2.4
									l44-25.4c2.3-1.4,4.3-4.7,4.2-7.4l-0.2-54.5C138.8,350.2,136.9,349.1,134.6,350.5"/>
							</g>
						</g>
					</g>
				</g>
			</g>
		</g>
	</g>
	<g class="st0">
		<g>
			<g class="st1">
				<defs>
					<polygon id="SVGID_11_" class="st1" points="153.4,468.4 153.3,410 200.9,382.5 201.1,440.9 					"/>
				</defs>
				<clipPath id="SVGID_12_">
					<use xlink:href="#SVGID_11_"  style="overflow:visible;"/>
				</clipPath>
				<g class="st11">
					<g>
						<g>
							<g>
								<path class="st3" d="M197.4,384.5L156.8,408c-2,1.1-3.5,3.9-3.5,6.1l0.1,50.3c0,2.3,1.6,3.2,3.6,2l40.6-23.4
									c2-1.1,3.5-3.9,3.5-6.1l-0.1-50.3C201,384.3,199.4,383.4,197.4,384.5"/>
							</g>
						</g>
					</g>
				</g>
			</g>
		</g>
	</g>
	<g class="st0">
		<g>
			<g class="st1">
				<defs>
					<polygon id="SVGID_13_" class="st1" points="626.8,353.5 627,254.2 726,311.4 725.7,410.7 					"/>
				</defs>
				<clipPath id="SVGID_14_">
					<use xlink:href="#SVGID_13_"  style="overflow:visible;"/>
				</clipPath>
				<g class="st12">
					<g>
						<g>
							<g>
								<path class="st3" d="M722.5,309.3l-91.9-53c-2-1.1-3.5-0.2-3.6,2l-0.3,91.1c0,2.2,1.6,5,3.5,6.1l91.9,53
									c2,1.1,3.6,0.2,3.6-2l0.3-91.1C726,313.2,724.4,310.5,722.5,309.3"/>
							</g>
						</g>
					</g>
				</g>
			</g>
		</g>
	</g>
	<g class="st0">
		<g>
			<g class="st1">
				<defs>
					<polygon id="SVGID_15_" class="st1" points="740.4,318.3 740.5,268 784.3,293.3 784.2,343.6 					"/>
				</defs>
				<clipPath id="SVGID_16_">
					<use xlink:href="#SVGID_15_"  style="overflow:visible;"/>
				</clipPath>
				<g class="st13">
					<g>
						<g>
							<g>
								<path class="st3" d="M780.8,291.2L744,270c-2-1.1-3.5-0.2-3.6,2l-0.1,42.2c0,2.3,1.6,5,3.5,6.1l36.7,21.2
									c2,1.1,3.6,0.2,3.6-2l0.1-42.2C784.3,295.1,782.7,292.3,780.8,291.2"/>
							</g>
						</g>
					</g>
				</g>
			</g>
		</g>
	</g>
	<g>
		<g>
			<g class="st1">
				<defs>
					<polygon id="SVGID_17_" class="st1" points="808,352.4 808.2,300.5 853.4,326.6 853.2,378.5 					"/>
				</defs>
				<clipPath id="SVGID_18_">
					<use xlink:href="#SVGID_17_"  style="overflow:visible;"/>
				</clipPath>
				<g class="st14">
					<g>
						<g>
							<g>
								<path class="st8" d="M812.3,353.3c-1.6-0.9-2.8-3.1-2.8-4.9l0.1-42.2c0-1.8,1.3-2.5,2.9-1.6l36.7,21.2
									c1.6,0.9,2.8,3.1,2.8,4.9l-0.1,42.2c0,1.8-1.3,2.5-2.8,1.6L812.3,353.3 M849.1,324.1l-36.7-21.2c-2.3-1.4-4.3-0.3-4.3,2.4
									l-0.1,42.2c0,2.7,1.9,6,4.2,7.4l36.7,21.2c2.3,1.4,4.3,0.3,4.3-2.4l0.1-42.2C853.4,328.8,851.5,325.5,849.1,324.1"/>
							</g>
						</g>
					</g>
				</g>
			</g>
		</g>
	</g>
	<g class="st4">
		<g>
			<g class="st1">
				<defs>
					<polygon id="SVGID_19_" class="st1" points="797.4,355.8 797.5,305.5 841.3,330.7 841.2,381.1 					"/>
				</defs>
				<clipPath id="SVGID_20_">
					<use xlink:href="#SVGID_19_"  style="overflow:visible;"/>
				</clipPath>
				<g class="st15">
					<g>
						<g>
							<g>
								<path class="st6" d="M837.8,328.7l-36.7-21.2c-2-1.1-3.5-0.2-3.6,2l-0.1,42.2c0,2.2,1.6,5,3.5,6.1l36.7,21.2
									c2,1.1,3.5,0.2,3.6-2l0.1-42.2C841.3,332.6,839.7,329.8,837.8,328.7"/>
							</g>
						</g>
					</g>
				</g>
			</g>
		</g>
	</g>
</g>
<g id="Layer_10">
	<g>
		<g>
			<g class="st1">
				<defs>
					<polygon id="SVGID_21_" class="st1" points="373.3,700.3 449.1,656.3 537.9,707.6 462.2,751.6 					"/>
				</defs>
				<clipPath id="SVGID_22_">
					<use xlink:href="#SVGID_21_"  style="overflow:visible;"/>
				</clipPath>
				<g class="st16">
					<g>
						<g>
							<g>
								<polyline class="st17" points="537.9,707.6 535.1,705.9 462.2,748.3 376.2,698.7 373.3,700.3 462.2,751.6 537.9,707.6 
																	"/>
							</g>
						</g>
					</g>
				</g>
			</g>
		</g>
	</g>
	<g>
		<g>
			<g class="st1">
				<defs>
					<polygon id="SVGID_23_" class="st1" points="397.5,714.8 448.9,684.9 513.5,722.2 462.1,752.1 					"/>
				</defs>
				<clipPath id="SVGID_24_">
					<use xlink:href="#SVGID_23_"  style="overflow:visible;"/>
				</clipPath>
				<g class="st18">
					<g>
						<g>
							<g>
								<g>
									<defs>
										<path id="SVGID_25_" d="M510.3,721.6c-0.6-0.3-1.5-0.3-2.1,0l-46.3,26.9l-59.3-34.2c-0.6-0.3-1.5-0.3-2.1,0
											c-0.6,0.3-0.6,0.9,0,1.2l61.4,35.5l48.4-28.1C510.9,722.5,510.9,722,510.3,721.6"/>
									</defs>
									<clipPath id="SVGID_26_">
										<use xlink:href="#SVGID_25_"  style="overflow:visible;"/>
									</clipPath>
									<g class="st19">
										<defs>
											<polyline id="SVGID_27_" points="462.1,752.1 397.5,714.8 448.9,684.9 513.5,722.2 462.1,752.1 											"/>
										</defs>
										<clipPath id="SVGID_28_">
											<use xlink:href="#SVGID_27_"  style="overflow:visible;"/>
										</clipPath>
										<g style="clip-path:url(#SVGID_28_);">
											
												<image style="overflow:visible;" width="117" height="68" xlink:href="59E4968B.jpg"  transform="matrix(1 0 0 1 397.4969 684.9146)">
											</image>
										</g>
									</g>
								</g>
							</g>
						</g>
					</g>
				</g>
			</g>
		</g>
	</g>
	<g>
		<g>
			<g class="st1">
				<defs>
					<polygon id="SVGID_29_" class="st1" points="396.9,685.6 447.7,656.2 512.2,693.4 461.5,722.9 					"/>
				</defs>
				<clipPath id="SVGID_30_">
					<use xlink:href="#SVGID_29_"  style="overflow:visible;"/>
				</clipPath>
				<g class="st20">
					<g>
						<g>
							<g>
								<polyline class="st17" points="512.2,693.4 509.4,691.8 461.5,719.6 399.8,684 396.9,685.6 461.5,722.9 512.2,693.4 
																	"/>
							</g>
						</g>
					</g>
				</g>
			</g>
		</g>
	</g>
	<g>
		<g>
			<g class="st1">
				<defs>
					<polygon id="SVGID_31_" class="st1" points="387.5,528 458.8,486.6 492.7,506.1 421.4,547.5 					"/>
				</defs>
				<clipPath id="SVGID_32_">
					<use xlink:href="#SVGID_31_"  style="overflow:visible;"/>
				</clipPath>
				<g class="st21">
					<g>
						<g>
							<g>
								<polyline class="st17" points="461.6,488.2 458.8,486.6 422,508 453,525.9 418.6,545.9 421.4,547.5 458.7,525.9 427.6,508 
									461.6,488.2 								"/>
							</g>
						</g>
					</g>
				</g>
			</g>
		</g>
	</g>
	<g>
		<g>
			<g class="st1">
				<defs>
					<polygon id="SVGID_33_" class="st1" points="596.7,498.3 630.3,478.7 702.1,520.1 668.4,539.7 					"/>
				</defs>
				<clipPath id="SVGID_34_">
					<use xlink:href="#SVGID_33_"  style="overflow:visible;"/>
				</clipPath>
				<g class="st22">
					<g>
						<g>
							<g>
								<polyline class="st17" points="702.1,520.1 654.7,492.7 623.8,510.7 599.5,496.6 596.7,498.3 623.8,513.9 654.7,496 
									699.2,521.7 702.1,520.1 								"/>
							</g>
						</g>
					</g>
				</g>
			</g>
		</g>
	</g>
	<g>
		<g>
			<g class="st1">
				<defs>
					<polygon id="SVGID_35_" class="st1" points="574.9,511.2 577.7,509.6 646.1,549 643.3,550.7 					"/>
				</defs>
				<clipPath id="SVGID_36_">
					<use xlink:href="#SVGID_35_"  style="overflow:visible;"/>
				</clipPath>
				<g class="st23">
					<g>
						<g>
							<g>
								<polyline class="st17" points="646.1,549 577.7,509.6 574.9,511.2 643.3,550.7 646.1,549 								"/>
							</g>
						</g>
					</g>
				</g>
			</g>
		</g>
	</g>
	<g>
		<g>
			<g class="st1">
				<defs>
					<polygon id="SVGID_37_" class="st1" points="598,525.8 602.3,523.3 642,546.2 637.7,548.7 					"/>
				</defs>
				<clipPath id="SVGID_38_">
					<use xlink:href="#SVGID_37_"  style="overflow:visible;"/>
				</clipPath>
				<g class="st24">
					<g>
						<g>
							<g>
								<g>
									<defs>
										<path id="SVGID_39_" d="M639.2,545.5L603.8,525c-0.6-0.3-1.5-0.3-2.1,0c-0.6,0.3-0.6,0.9,0,1.2l35.4,20.4
											c0.6,0.3,1.5,0.3,2.1,0C639.8,546.3,639.8,545.8,639.2,545.5"/>
									</defs>
									<clipPath id="SVGID_40_">
										<use xlink:href="#SVGID_39_"  style="overflow:visible;"/>
									</clipPath>
									<g class="st25">
										<defs>
											<polyline id="SVGID_41_" points="637.7,548.7 598,525.8 602.3,523.3 642,546.2 637.7,548.7 											"/>
										</defs>
										<clipPath id="SVGID_42_">
											<use xlink:href="#SVGID_41_"  style="overflow:visible;"/>
										</clipPath>
										<g style="clip-path:url(#SVGID_42_);">
											
												<image style="overflow:visible;" width="44" height="26" xlink:href="59E49689.jpg"  transform="matrix(1 0 0 1 598.0222 523.3031)">
											</image>
										</g>
									</g>
								</g>
							</g>
						</g>
					</g>
				</g>
			</g>
		</g>
	</g>
	<g>
		<g>
			<g class="st1">
				<defs>
					<polygon id="SVGID_43_" class="st1" points="162.3,647.5 209.7,620 212.6,621.6 165.2,649.1 					"/>
				</defs>
				<clipPath id="SVGID_44_">
					<use xlink:href="#SVGID_43_"  style="overflow:visible;"/>
				</clipPath>
				<g class="st26">
					<g>
						<g>
							<g>
								<polyline class="st17" points="212.6,621.6 209.7,620 162.3,647.5 165.2,649.1 212.6,621.6 								"/>
							</g>
						</g>
					</g>
				</g>
			</g>
		</g>
	</g>
	<g>
		<g>
			<g class="st1">
				<defs>
					<polygon id="SVGID_45_" class="st1" points="172,655.5 219.4,628 222.2,629.6 174.8,657.2 					"/>
				</defs>
				<clipPath id="SVGID_46_">
					<use xlink:href="#SVGID_45_"  style="overflow:visible;"/>
				</clipPath>
				<g class="st27">
					<g>
						<g>
							<g>
								<polyline class="st17" points="222.2,629.6 219.4,628 172,655.5 174.8,657.2 222.2,629.6 								"/>
							</g>
						</g>
					</g>
				</g>
			</g>
		</g>
	</g>
	<g>
		<g>
			<g class="st1">
				<defs>
					<polygon id="SVGID_47_" class="st1" points="406.3,538.9 477.6,497.5 540,533.5 468.7,574.9 					"/>
				</defs>
				<clipPath id="SVGID_48_">
					<use xlink:href="#SVGID_47_"  style="overflow:visible;"/>
				</clipPath>
				<g class="st28">
					<g>
						<g>
							<g>
								<polyline class="st17" points="480.4,499.1 477.6,497.5 456.4,509.8 516,544.2 465.9,573.3 468.7,574.9 521.6,544.2 
									462,509.8 480.4,499.1 								"/>
							</g>
						</g>
					</g>
				</g>
			</g>
		</g>
	</g>
</g>
<g id="Layer_11">
	<polyline class="st29" points="249,579.5 208.5,554.2 208.5,461.2 405.1,349.4 	"/>
	<linearGradient id="SVGID_49_" gradientUnits="userSpaceOnUse" x1="206.9515" y1="459.9177" x2="288.9947" y2="459.9177">
		<stop  offset="0" style="stop-color:#2833C0"/>
		<stop  offset="1" style="stop-color:#4CF2E2"/>
	</linearGradient>
	<polyline class="st30" points="208.5,503.6 208.5,461.2 287.5,416.3 	"/>
	<polyline class="st29" points="516.2,244.9 537,232.2 618,278.7 618,305.6 	"/>
	<polyline class="st29" points="460.9,454.6 447.7,448 447.7,408.4 	"/>
	<polyline class="st29" points="756.3,389.4 685,345.5 685,435.4 630.8,464.9 	"/>
	<linearGradient id="SVGID_50_" gradientUnits="userSpaceOnUse" x1="683.4795" y1="368.6289" x2="738.0145" y2="368.6289">
		<stop  offset="0" style="stop-color:#4CF2E2"/>
		<stop  offset="1" style="stop-color:#2833C0"/>
	</linearGradient>
	<polyline class="st31" points="736.5,377.2 685,345.5 685,392.9 	"/>
	<polyline class="st29" points="834.2,472.4 834.2,497.6 808.7,483.6 808.7,520.9 782.4,535.1 	"/>
</g>
<g id="Layer_3">
	<g>
		<g>
			<g class="st1">
				<defs>
					<polygon id="SVGID_51_" class="st1" points="191.9,610.6 359.8,513 528.8,610.6 360.9,708.1 					"/>
				</defs>
				<clipPath id="SVGID_52_">
					<use xlink:href="#SVGID_51_"  style="overflow:visible;"/>
				</clipPath>
				<g class="st32">
					<g>
						<g>
							<g>
								<path class="st8" d="M197.5,612.2c-1.6-0.9-1.6-2.4,0-3.3L357,516.3c1.6-0.9,4.1-0.9,5.7,0l160.5,92.7
									c1.6,0.9,1.6,2.4,0,3.3l-159.5,92.7c-1.6,0.9-4.1,0.9-5.7,0L197.5,612.2 M524.5,608.1L364,515.4c-2.3-1.4-6.2-1.4-8.5,0
									l-159.5,92.7c-2.3,1.4-2.3,3.6,0,4.9l160.5,92.7c2.3,1.4,6.2,1.4,8.5,0L524.6,613C526.9,611.7,526.9,609.5,524.5,608.1"/>
							</g>
						</g>
					</g>
				</g>
			</g>
		</g>
	</g>
	<g>
		<g>
			<g class="st1">
				<defs>
					<polygon id="SVGID_53_" class="st1" points="80.1,674.8 143.4,638.1 207,674.8 143.8,711.6 					"/>
				</defs>
				<clipPath id="SVGID_54_">
					<use xlink:href="#SVGID_53_"  style="overflow:visible;"/>
				</clipPath>
				<g class="st33">
					<g>
						<g>
							<g>
								<path class="st8" d="M85.8,676.5c-1.6-0.9-1.6-2.4,0-3.3l54.8-31.8c1.6-0.9,4.1-0.9,5.7,0l55.2,31.8c1.6,0.9,1.6,2.4,0,3.3
									l-54.8,31.8c-1.6,0.9-4.1,0.9-5.7,0L85.8,676.5 M202.8,672.4l-55.2-31.8c-2.3-1.4-6.2-1.4-8.5,0l-54.8,31.8
									c-2.3,1.4-2.3,3.6,0,4.9l55.2,31.8c2.3,1.4,6.1,1.4,8.5,0l54.8-31.8C205.1,675.9,205.1,673.7,202.8,672.4"/>
							</g>
						</g>
					</g>
				</g>
			</g>
		</g>
	</g>
	<g>
		<g>
			<g class="st1">
				<defs>
					<polygon id="SVGID_55_" class="st1" points="804.6,655.2 828.1,641.6 851.7,655.2 828.2,668.8 					"/>
				</defs>
				<clipPath id="SVGID_56_">
					<use xlink:href="#SVGID_55_"  style="overflow:visible;"/>
				</clipPath>
				<g class="st34">
					<g>
						<g>
							<g>
								<path class="st8" d="M810.3,656.8c-1.6-0.9-1.6-2.4,0-3.3l15-8.7c1.6-0.9,4.1-0.9,5.7,0l15.1,8.7c1.6,0.9,1.6,2.4,0,3.3
									l-15,8.7c-1.6,0.9-4.1,0.9-5.7,0L810.3,656.8 M847.4,652.7l-15.1-8.7c-2.3-1.4-6.2-1.4-8.5,0l-15,8.7
									c-2.3,1.4-2.3,3.6,0,4.9l15.1,8.7c2.3,1.4,6.2,1.4,8.5,0l15-8.7C849.8,656.3,849.7,654.1,847.4,652.7"/>
							</g>
						</g>
					</g>
				</g>
			</g>
		</g>
	</g>
	<g>
		<g>
			<g class="st1">
				<defs>
					<polygon id="SVGID_57_" class="st1" points="848.1,635.7 891.4,610.5 935.1,635.7 891.7,660.9 					"/>
				</defs>
				<clipPath id="SVGID_58_">
					<use xlink:href="#SVGID_57_"  style="overflow:visible;"/>
				</clipPath>
				<g class="st35">
					<g>
						<g>
							<g>
								<path class="st8" d="M853.8,637.3c-1.6-0.9-1.6-2.4,0-3.3l34.9-20.3c1.6-0.9,4.1-0.9,5.7,0l35.1,20.3c1.6,0.9,1.6,2.4,0,3.3
									l-34.9,20.3c-1.6,0.9-4.1,0.9-5.7,0L853.8,637.3 M930.8,633.2L895.7,613c-2.3-1.4-6.2-1.4-8.5,0l-34.9,20.3
									c-2.3,1.4-2.3,3.6,0,4.9l35.1,20.3c2.3,1.4,6.2,1.4,8.5,0l34.9-20.3C933.2,636.8,933.2,634.6,930.8,633.2"/>
							</g>
						</g>
					</g>
				</g>
			</g>
		</g>
	</g>
	<g>
		<g>
			<g class="st1">
				<defs>
					<polygon id="SVGID_59_" class="st1" points="494.9,684.1 577.2,636.2 660,684.1 577.7,731.9 					"/>
				</defs>
				<clipPath id="SVGID_60_">
					<use xlink:href="#SVGID_59_"  style="overflow:visible;"/>
				</clipPath>
				<g class="st36">
					<g>
						<g>
							<g>
								<path class="st8" d="M500.6,685.7c-1.6-0.9-1.6-2.4,0-3.3l73.8-42.9c1.6-0.9,4.1-0.9,5.7,0l74.3,42.9c1.6,0.9,1.6,2.4,0,3.3
									l-73.8,42.9c-1.6,0.9-4.1,0.9-5.7,0L500.6,685.7 M655.7,681.6l-74.3-42.9c-2.3-1.4-6.2-1.4-8.5,0l-73.8,42.9
									c-2.3,1.4-2.3,3.6,0,4.9l74.3,42.9c2.3,1.4,6.1,1.4,8.5,0l73.8-42.9C658.1,685.2,658.1,683,655.7,681.6"/>
							</g>
						</g>
					</g>
				</g>
			</g>
		</g>
	</g>
	<g>
		<g>
			<g class="st1">
				<defs>
					<polygon id="SVGID_61_" class="st1" points="582.9,585.1 725.5,502.2 869,585.1 726.4,667.9 					"/>
				</defs>
				<clipPath id="SVGID_62_">
					<use xlink:href="#SVGID_61_"  style="overflow:visible;"/>
				</clipPath>
				<g class="st37">
					<g>
						<g>
							<g>
								<path class="st8" d="M588.6,586.7c-1.6-0.9-1.6-2.4,0-3.3l134.1-77.9c1.6-0.9,4.1-0.9,5.7,0l135,77.9c1.6,0.9,1.6,2.4,0,3.3
									l-134.1,77.9c-1.6,0.9-4.1,0.9-5.7,0L588.6,586.7 M864.7,582.6l-135-77.9c-2.3-1.4-6.2-1.4-8.5,0l-134.1,77.9
									c-2.3,1.4-2.3,3.6,0,4.9l135,77.9c2.3,1.4,6.1,1.4,8.5,0l134.1-77.9C867.1,586.2,867,584,864.7,582.6"/>
							</g>
						</g>
					</g>
				</g>
			</g>
		</g>
	</g>
	<g>
		<g>
			<g class="st1">
				<defs>
					<polygon id="SVGID_63_" class="st1" points="430.7,471.5 536.8,409.8 643.6,471.5 537.5,533.1 					"/>
				</defs>
				<clipPath id="SVGID_64_">
					<use xlink:href="#SVGID_63_"  style="overflow:visible;"/>
				</clipPath>
				<g class="st38">
					<g>
						<g>
							<g>
								<path class="st8" d="M436.4,473.1c-1.6-0.9-1.6-2.4,0-3.3l97.6-56.7c1.6-0.9,4.1-0.9,5.7,0l98.3,56.7c1.6,0.9,1.6,2.4,0,3.3
									l-97.6,56.7c-1.6,0.9-4.1,0.9-5.7,0L436.4,473.1 M639.3,469l-98.3-56.7c-2.3-1.4-6.2-1.4-8.5,0L435,469
									c-2.3,1.4-2.3,3.6,0,4.9l98.3,56.7c2.3,1.4,6.2,1.4,8.5,0l97.6-56.7C641.7,472.6,641.7,470.4,639.3,469"/>
							</g>
						</g>
					</g>
				</g>
			</g>
		</g>
	</g>
	<g class="st4">
		<g>
			<g class="st1">
				<defs>
					<polygon id="SVGID_65_" class="st1" points="81.5,662.8 143.4,626.9 205.6,662.8 143.8,698.8 					"/>
				</defs>
				<clipPath id="SVGID_66_">
					<use xlink:href="#SVGID_65_"  style="overflow:visible;"/>
				</clipPath>
				<g class="st39">
					<g>
						<g>
							<g>
								<path class="st6" d="M202.1,660.8l-55.2-31.8c-2-1.1-5.1-1.1-7.1,0l-54.8,31.8c-1.9,1.1-1.9,3,0,4.1l55.2,31.8
									c2,1.1,5.1,1.1,7.1,0l54.8-31.8C204.1,663.7,204,661.9,202.1,660.8"/>
							</g>
						</g>
					</g>
				</g>
			</g>
		</g>
	</g>
	<g class="st4">
		<g>
			<g class="st1">
				<defs>
					<polygon id="SVGID_67_" class="st1" points="806,647.2 828.1,634.4 850.2,647.2 828.2,660 					"/>
				</defs>
				<clipPath id="SVGID_68_">
					<use xlink:href="#SVGID_67_"  style="overflow:visible;"/>
				</clipPath>
				<g class="st40">
					<g>
						<g>
							<g>
								<path class="st6" d="M846.7,645.1l-15.1-8.7c-2-1.1-5.1-1.1-7.1,0l-15,8.7c-1.9,1.1-1.9,3,0,4.1l15.1,8.7
									c2,1.1,5.1,1.1,7.1,0l15-8.7C848.7,648.1,848.7,646.3,846.7,645.1"/>
							</g>
						</g>
					</g>
				</g>
			</g>
		</g>
	</g>
	<g class="st4">
		<g>
			<g class="st1">
				<defs>
					<polygon id="SVGID_69_" class="st1" points="849.5,625.7 891.4,601.3 933.7,625.7 891.7,650.1 					"/>
				</defs>
				<clipPath id="SVGID_70_">
					<use xlink:href="#SVGID_69_"  style="overflow:visible;"/>
				</clipPath>
				<g class="st41">
					<g>
						<g>
							<g>
								<path class="st6" d="M930.1,623.6L895,603.4c-2-1.1-5.1-1.1-7.1,0L853,623.6c-1.9,1.1-1.9,3,0,4.1l35.1,20.3
									c2,1.1,5.1,1.1,7.1,0l34.9-20.3C932.1,626.6,932.1,624.8,930.1,623.6"/>
							</g>
						</g>
					</g>
				</g>
			</g>
		</g>
	</g>
	<g class="st4">
		<g>
			<g class="st1">
				<defs>
					<polygon id="SVGID_71_" class="st1" points="496.3,673.1 577.2,626.1 658.6,673.1 577.7,720.1 					"/>
				</defs>
				<clipPath id="SVGID_72_">
					<use xlink:href="#SVGID_71_"  style="overflow:visible;"/>
				</clipPath>
				<g class="st42">
					<g>
						<g>
							<g>
								<path class="st6" d="M655,671l-74.3-42.9c-2-1.1-5.1-1.1-7.1,0L499.8,671c-1.9,1.1-1.9,3,0,4.1l74.3,42.9
									c2,1.1,5.1,1.1,7.1,0l73.8-42.9C657,674,657,672.2,655,671"/>
							</g>
						</g>
					</g>
				</g>
			</g>
		</g>
	</g>
	<g class="st4">
		<g>
			<g class="st1">
				<defs>
					<polygon id="SVGID_73_" class="st1" points="584.4,565.1 725.5,483 867.5,565.1 726.4,647.1 					"/>
				</defs>
				<clipPath id="SVGID_74_">
					<use xlink:href="#SVGID_73_"  style="overflow:visible;"/>
				</clipPath>
				<g class="st43">
					<g>
						<g>
							<g>
								<path class="st6" d="M864,563l-135-77.9c-2-1.1-5.1-1.1-7.1,0L587.9,563c-1.9,1.1-1.9,3,0,4.1l135,77.9c2,1.1,5.1,1.1,7.1,0
									L864,567.1C866,566,866,564.2,864,563"/>
							</g>
						</g>
					</g>
				</g>
			</g>
		</g>
	</g>
	<g class="st4">
		<g>
			<g class="st1">
				<defs>
					<polygon id="SVGID_75_" class="st1" points="432.2,451.5 536.8,390.7 642.2,451.5 537.5,512.3 					"/>
				</defs>
				<clipPath id="SVGID_76_">
					<use xlink:href="#SVGID_75_"  style="overflow:visible;"/>
				</clipPath>
				<g class="st44">
					<g>
						<g>
							<g>
								<path class="st6" d="M638.6,449.4l-98.3-56.7c-2-1.1-5.1-1.1-7.1,0l-97.6,56.7c-1.9,1.1-1.9,3,0,4.1l98.3,56.7
									c2,1.1,5.1,1.1,7.1,0l97.6-56.7C640.6,452.4,640.6,450.6,638.6,449.4"/>
							</g>
						</g>
					</g>
				</g>
			</g>
		</g>
	</g>
	<g class="st4">
		<g>
			<g class="st1">
				<defs>
					<polygon id="SVGID_77_" class="st1" points="193.3,578.6 359.8,481.8 527.4,578.6 360.9,675.3 					"/>
				</defs>
				<clipPath id="SVGID_78_">
					<use xlink:href="#SVGID_77_"  style="overflow:visible;"/>
				</clipPath>
				<g class="st45">
					<g>
						<g>
							<g>
								<path class="st6" d="M523.8,576.5l-160.5-92.7c-2-1.1-5.1-1.1-7.1,0l-159.5,92.7c-1.9,1.1-1.9,3,0,4.1l160.5,92.7
									c2,1.1,5.1,1.1,7.1,0l159.5-92.7C525.8,579.5,525.8,577.7,523.8,576.5"/>
							</g>
						</g>
					</g>
				</g>
			</g>
		</g>
	</g>
	<g>
		<path class="st46" d="M368.3,405.3c0,13.6-9.2,25.1-21.7,28.6l-7.7,18.3l-7.6-18c-12.9-3.2-22.5-14.9-22.5-28.9
			c0-16.4,13.3-29.8,29.8-29.8C355,375.6,368.3,388.9,368.3,405.3z"/>
		<g>
			<line class="st47" x1="327.4" y1="394.2" x2="349.7" y2="416.5"/>
			<line class="st47" x1="327.4" y1="416.5" x2="349.7" y2="394.2"/>
		</g>
	</g>
	<g>
		<g>
			<g class="st1">
				<defs>
					<polygon id="SVGID_79_" class="st1" points="532,573.8 532.2,508 577.3,534.1 577.1,599.8 					"/>
				</defs>
				<clipPath id="SVGID_80_">
					<use xlink:href="#SVGID_79_"  style="overflow:visible;"/>
				</clipPath>
				<g class="st48">
					<g>
						<g>
							<g>
								<path class="st49" d="M551.4,548.3l12-6.9l3.8,6.5l-15.8,9l-9.1-15.8l3.8-2.2L551.4,548.3 M554.7,524.3
									c-5.4-3.1-10.4-3.4-13.9-1.4c-3.6,2-5.8,6.4-5.8,12.7c0,5.3,1.6,11.1,4.2,16.5c2.6,5.4,6.4,10.4,10.6,14.1
									c0.4,0.4,0.8,0.9,1,1.5l4.1,13.5l4.2-8.9c0.2-0.4,0.5-0.5,0.9-0.4c4.1,1,7.7,0.3,10.3-2.1c2.6-2.3,4.1-6.2,4.1-11.4l1.4,0.8
									l-1.4-0.8c0-6.3-2.2-13.2-5.7-19.3C565.1,532.8,560.2,527.5,554.7,524.3"/>
								<path class="st50" d="M554.8,521.1c-12.4-7.2-22.6-1.4-22.6,12.9c0,6.1,1.8,12.7,4.8,18.9c2.9,5.9,6.9,11.3,11.5,15.5
									l5.1,16.9c0.2,0.7,0.7,1.4,1.3,1.7c0.6,0.3,1.1,0.2,1.3-0.2l5.3-11.2c4.5,1,8.3,0,11.1-2.5c2.9-2.7,4.7-7.1,4.7-13.1
									l-1.4-0.8l-1.4-0.8c0,5.2-1.5,9.1-4.1,11.4c-2.6,2.3-6.2,3.1-10.3,2.1c-0.4-0.1-0.8,0-0.9,0.4l-4.2,8.9l-4.1-13.5
									c-0.2-0.6-0.5-1.1-1-1.5c-4.3-3.7-8-8.7-10.6-14.1c-2.6-5.4-4.2-11.2-4.2-16.5c0-6.3,2.2-10.6,5.8-12.7
									c3.6-2,8.5-1.7,13.9,1.4c5.4,3.1,10.3,8.5,13.9,14.7c3.6,6.2,5.7,13.1,5.7,19.3l1.4,0.8l1.4,0.8
									C577.3,545.7,567.2,528.2,554.8,521.1"/>
								<polyline class="st51" points="563.4,541.5 551.4,548.3 546,539.1 542.2,541.3 551.3,557 567.1,548 563.4,541.5 								"/>
							</g>
						</g>
					</g>
				</g>
			</g>
		</g>
	</g>
	<g>
		<g>
			<g class="st1">
				<defs>
					<polygon id="SVGID_81_" class="st1" points="711.2,481.4 711.4,415.6 756.4,441.6 756.3,507.4 					"/>
				</defs>
				<clipPath id="SVGID_82_">
					<use xlink:href="#SVGID_81_"  style="overflow:visible;"/>
				</clipPath>
				<g class="st52">
					<g>
						<g>
							<g>
								<path class="st49" d="M730.5,455.9l12-6.9l3.8,6.5l-15.8,9l-9.1-15.8l3.8-2.2L730.5,455.9 M733.9,431.9
									c-5.4-3.1-10.4-3.5-14-1.4c-3.6,2-5.8,6.4-5.8,12.7c0,5.3,1.6,11.1,4.2,16.5c2.6,5.4,6.4,10.4,10.6,14.1
									c0.4,0.4,0.8,0.9,1,1.5l4.1,13.5l4.2-8.9c0.2-0.4,0.5-0.5,0.9-0.4c4.1,1,7.7,0.3,10.3-2.1c2.6-2.3,4.1-6.2,4.1-11.4l1.4,0.8
									l-1.4-0.8c0-6.3-2.2-13.2-5.7-19.3C744.3,440.4,739.4,435,733.9,431.9"/>
								<path class="st50" d="M733.9,428.6c-12.5-7.2-22.6-1.4-22.6,12.9c0,6.1,1.8,12.7,4.8,18.9c2.9,5.9,6.9,11.3,11.5,15.5
									l5.1,16.9c0.2,0.7,0.7,1.4,1.3,1.7c0.6,0.3,1.1,0.2,1.3-0.2l5.3-11.2c4.5,1,8.3,0,11.1-2.5c2.9-2.7,4.7-7.1,4.7-13.1
									l-1.4-0.8l-1.4-0.8c0,5.2-1.5,9.1-4.1,11.4c-2.6,2.3-6.1,3.1-10.3,2.1c-0.4-0.1-0.8,0-0.9,0.4l-4.2,8.9l-4.1-13.5
									c-0.2-0.6-0.5-1.1-1-1.5c-4.3-3.7-8-8.7-10.6-14.1c-2.6-5.4-4.2-11.2-4.2-16.5c0-6.3,2.2-10.6,5.8-12.7
									c3.6-2,8.5-1.7,14,1.4c5.4,3.1,10.3,8.5,13.9,14.7c3.6,6.2,5.7,13.1,5.7,19.3l1.4,0.8l1.4,0.8
									C756.4,453.2,746.4,435.8,733.9,428.6"/>
								<polyline class="st51" points="742.5,449.1 730.5,455.9 725.2,446.7 721.4,448.8 730.5,464.6 746.3,455.6 742.5,449.1 
																	"/>
							</g>
						</g>
					</g>
				</g>
			</g>
		</g>
	</g>
</g>
<g id="Layer_4">
	<g>
		<g>
			<g class="st1">
				<defs>
					<polygon id="SVGID_83_" class="st1" points="479.9,310.6 479.7,251.5 516.9,230 517,289.2 					"/>
				</defs>
				<clipPath id="SVGID_84_">
					<use xlink:href="#SVGID_83_"  style="overflow:visible;"/>
				</clipPath>
				<g class="st53">
					<g>
						<g>
							<g>
								<path class="st54" d="M506,288.6c-0.4,0.2-0.7,0-0.7-0.4l0-1.1c0-0.5,0.3-1,0.7-1.2l5.5-3.2c0.4-0.2,0.7,0,0.7,0.4l0,1.1
									c0,0.4-0.3,1-0.7,1.2L506,288.6 M487,292.1c-0.4,0.2-0.7,0-0.7-0.4l0-1.1c0-0.4,0.3-1,0.7-1.2l12.4-7.1
									c0.4-0.2,0.7,0,0.7,0.4l0,1.1c0,0.5-0.3,1-0.7,1.2L487,292.1 M487,286.4c-0.4,0.2-0.7,0-0.7-0.4l0-1.1c0-0.5,0.3-1,0.7-1.2
									l21.1-12.2c0.4-0.2,0.7,0,0.7,0.4l0,1.1c0,0.4-0.3,1-0.7,1.2L487,286.4 M498.4,266.5c2.4-1.4,4.5-4.1,5.5-7.1l4.5-0.1
									c-1.9,5.5-5.7,10.4-9.9,12.9c-2.2,1.3-4.4,1.8-6.2,1.4l2.8-6.3C495.9,267.5,497.1,267.2,498.4,266.5 M496.8,253.5l-1.2-4.8
									c0.9-0.8,1.8-1.4,2.7-2c6.1-3.5,11.1-0.7,11.1,6.3c0,2-0.4,4.1-1.1,6.3l-4.5,0.1c0.4-1.2,0.6-2.4,0.6-3.4
									c0-3.9-2.8-5.4-6.1-3.5C497.8,252.7,497.3,253.1,496.8,253.5c-2.7,2.4-4.6,6.2-4.6,9.5c0,2.3,1,3.9,2.7,4.3l-2.8,6.3
									c-3.1-0.6-4.9-3.5-4.9-7.7c0-5.8,3.4-12.9,8.3-17.1L496.8,253.5 M512.6,234.1l-28.7,16.6c-1.6,0.9-2.8,3.1-2.8,4.9l0.1,49.3
									c0,1.8,1.3,2.5,2.8,1.6l28.7-16.6c1.6-0.9,2.8-3.1,2.8-4.9l-0.1-49.3C515.5,233.9,514.2,233.2,512.6,234.1"/>
								<path class="st8" d="M484.1,306.5c-1.6,0.9-2.8,0.2-2.8-1.6l-0.1-49.3c0-1.8,1.3-4,2.8-4.9l28.7-16.6
									c1.6-0.9,2.8-0.2,2.8,1.6l0.1,49.3c0,1.8-1.3,4-2.8,4.9L484.1,306.5 M512.6,232.5L483.9,249c-2.3,1.4-4.3,4.7-4.2,7.4
									l0.1,49.3c0,2.7,1.9,3.8,4.3,2.4l28.7-16.6c2.3-1.4,4.2-4.6,4.2-7.3l-0.1-49.3C516.9,232.2,515,231.1,512.6,232.5"/>
								<path class="st55" d="M503.8,259.4c-1,3-3.1,5.8-5.5,7.1c-1.2,0.7-2.4,1-3.4,0.8l-2.8,6.3c1.8,0.4,4-0.1,6.2-1.4
									c4.3-2.5,8.1-7.4,9.9-12.9L503.8,259.4"/>
								<path class="st50" d="M498.3,246.7c-0.9,0.5-1.8,1.2-2.7,2l1.2,4.8c0.5-0.4,1-0.8,1.5-1.1c3.4-1.9,6.1-0.4,6.1,3.5
									c0,1.1-0.2,2.2-0.6,3.4l4.5-0.1c0.7-2.2,1.1-4.3,1.1-6.3C509.4,246.1,504.4,243.2,498.3,246.7"/>
								<path class="st56" d="M495.6,248.7c-4.9,4.3-8.3,11.3-8.3,17.1c0,4.2,1.8,7.1,4.9,7.7l2.8-6.3c-1.7-0.3-2.7-1.9-2.7-4.3
									c0-3.2,1.9-7.1,4.6-9.5L495.6,248.7"/>
								<path class="st6" d="M508.1,271.6L487,283.7c-0.4,0.2-0.7,0.8-0.7,1.2l0,1.1c0,0.4,0.3,0.6,0.7,0.4l21.1-12.2
									c0.4-0.2,0.7-0.8,0.7-1.2l0-1.1C508.8,271.5,508.5,271.4,508.1,271.6"/>
								<path class="st6" d="M499.4,282.2l-12.4,7.1c-0.4,0.2-0.7,0.8-0.7,1.2l0,1.1c0,0.5,0.3,0.6,0.7,0.4l12.4-7.1
									c0.4-0.2,0.7-0.8,0.7-1.2l0-1.1C500.1,282.2,499.8,282,499.4,282.2"/>
								<path class="st6" d="M511.5,282.8l-5.5,3.2c-0.4,0.2-0.7,0.8-0.7,1.2l0,1.1c0,0.4,0.3,0.6,0.7,0.4l5.5-3.2
									c0.4-0.2,0.7-0.8,0.7-1.2l0-1.1C512.2,282.7,511.9,282.5,511.5,282.8"/>
							</g>
						</g>
					</g>
				</g>
			</g>
		</g>
	</g>
	<g>
		<g>
			<g class="st1">
				<defs>
					<polygon id="SVGID_85_" class="st1" points="405.2,433.8 404.9,330.6 470.6,292.7 470.9,395.8 					"/>
				</defs>
				<clipPath id="SVGID_86_">
					<use xlink:href="#SVGID_85_"  style="overflow:visible;"/>
				</clipPath>
				<g class="st57">
					<g>
						<g>
							<g>
								<path class="st54" d="M455.1,361.7l-10.3,5.9c-1.6,0.9-2.8,3.1-2.8,4.9l0.1,18.4l10.3-5.9c1.6-0.9,2.8-3.1,2.8-4.9
									L455.1,361.7 M414.7,394.1c-0.4,0.2-0.7,0-0.7-0.4l0-1.8c0-0.5,0.3-1,0.7-1.2l14.1-8.1c0.4-0.2,0.7,0,0.7,0.4l0,1.8
									c0,0.4-0.3,1-0.7,1.2L414.7,394.1 M414.6,368.5c-0.4,0.2-0.7,0-0.7-0.4l0-1.8c0-0.5,0.3-1,0.7-1.2l21.8-12.6
									c0.4-0.2,0.7-0.1,0.7,0.4l0,1.8c0,0.4-0.3,1-0.7,1.2L414.6,368.5 M414.6,357.4c-0.4,0.2-0.7,0-0.7-0.4l0-1.8
									c0-0.5,0.3-1,0.7-1.2l14.1-8.1c0.4-0.2,0.7,0,0.7,0.4l0,1.8c0,0.4-0.3,1-0.7,1.2L414.6,357.4 M414.5,348.2
									c-0.4,0.2-0.7,0-0.7-0.4l0-1.8c0-0.5,0.3-1,0.7-1.2l29.5-17c0.4-0.2,0.7,0,0.7,0.4l0,1.8c0,0.4-0.3,1-0.7,1.2L414.5,348.2
									 M414.5,339.1c-0.4,0.2-0.7,0-0.7-0.4l0-1.8c0-0.5,0.3-1,0.7-1.2l29.5-17c0.4-0.2,0.7,0,0.7,0.4l0,1.8c0,0.4-0.3,1-0.7,1.2
									L414.5,339.1 M452.1,305l-42.9,24.8c-1.6,0.9-2.8,3.1-2.8,4.9l0.2,73.5c0,1.8,1.3,2.5,2.9,1.6l31.2-18l-0.1-18.4
									c0-2.7,1.9-6,4.2-7.3l10.3-5.9l-0.2-53.4C454.9,304.9,453.6,304.1,452.1,305"/>
								<path class="st8" d="M456.5,360.9l-1.4,0.8l0.1,18.4c0,1.8-1.3,4-2.8,4.9l-10.3,5.9l0,1.6l10.3-5.9c2.3-1.4,4.2-4.6,4.2-7.3
									L456.5,360.9 M452.1,303.4l-42.9,24.8c-2.3,1.4-4.3,4.7-4.2,7.4l0.2,73.5c0,2.7,1.9,3.8,4.3,2.4l31.2-18l0-1.6l-31.2,18
									c-1.6,0.9-2.8,0.2-2.9-1.6l-0.2-73.5c0-1.8,1.3-4,2.8-4.9l42.9-24.8c1.6-0.9,2.8-0.2,2.8,1.6l0.2,53.4l1.4-0.8l-0.2-53.4
									C456.3,303.1,454.4,302.1,452.1,303.4"/>
								<path class="st8" d="M456.5,360.9l10.1-5.8c1.6-0.9,2.8-0.2,2.8,1.6l0.1,35.1c0,1.8-1.3,4-2.8,4.9l-21.8,12.6
									c-1.6,0.9-2.8,0.2-2.8-1.6l0-15l0-1.6l-0.1-18.4c0-1.8,1.3-4,2.8-4.9l10.3-5.9L456.5,360.9 M466.6,353.4l-10.1,5.8l-1.4,0.8
									l-10.3,5.9c-2.3,1.4-4.2,4.6-4.2,7.3l0.1,18.4l0,1.6l0,15c0,2.7,1.9,3.8,4.3,2.4l21.8-12.6c2.3-1.4,4.2-4.6,4.2-7.3
									l-0.1-35.1C470.8,353.2,468.9,352.1,466.6,353.4"/>
								<path class="st55" d="M444,318.6l-29.5,17c-0.4,0.2-0.7,0.8-0.7,1.2l0,1.8c0,0.4,0.3,0.6,0.7,0.4l29.5-17
									c0.4-0.2,0.7-0.8,0.7-1.2l0-1.8C444.7,318.5,444.4,318.3,444,318.6"/>
								<path class="st56" d="M444,327.7l-29.5,17c-0.4,0.2-0.7,0.8-0.7,1.2l0,1.8c0,0.4,0.3,0.6,0.7,0.4l29.5-17
									c0.4-0.2,0.7-0.8,0.7-1.2l0-1.8C444.8,327.7,444.4,327.5,444,327.7"/>
								<path class="st6" d="M428.6,345.8l-14.1,8.1c-0.4,0.2-0.7,0.8-0.7,1.2l0,1.8c0,0.4,0.3,0.6,0.7,0.4l14.1-8.1
									c0.4-0.2,0.7-0.8,0.7-1.2l0-1.8C429.3,345.8,429,345.6,428.6,345.8"/>
								<path class="st50" d="M428.7,382.5l-14.1,8.1c-0.4,0.2-0.7,0.8-0.7,1.2l0,1.8c0,0.4,0.3,0.6,0.7,0.4l14.1-8.1
									c0.4-0.2,0.7-0.8,0.7-1.2l0-1.8C429.4,382.5,429.1,382.3,428.7,382.5"/>
								<path class="st6" d="M436.4,352.4L414.6,365c-0.4,0.2-0.7,0.8-0.7,1.2l0,1.8c0,0.4,0.3,0.6,0.7,0.4l21.8-12.6
									c0.4-0.2,0.7-0.8,0.7-1.2l0-1.8C437.1,352.4,436.8,352.2,436.4,352.4"/>
							</g>
						</g>
					</g>
				</g>
			</g>
		</g>
	</g>
	<g>
		<g>
			<g class="st1">
				<defs>
					<polygon id="SVGID_87_" class="st1" points="578,384.4 578.3,281.3 657.9,327.3 657.6,430.4 					"/>
				</defs>
				<clipPath id="SVGID_88_">
					<use xlink:href="#SVGID_87_"  style="overflow:visible;"/>
				</clipPath>
				<g class="st58">
					<g>
						<g>
							<g>
								<path class="st54" d="M641.1,353.6l-2.7-1.5c-0.3,1.7-0.7,3.3-1.1,4.6c-1,3-2.3,5-3.9,5.7c-1.1,0.5-2.3,0.4-3.6-0.4
									c-1.6-0.9-3.3-2.8-5.2-5.6c-0.5-0.8-1-1.3-1.4-1.5c-0.3-0.2-0.6-0.2-0.9-0.1c-0.3,0.1-0.6,0.4-0.9,0.8
									c-0.6,0.8-1.1,2.2-1.6,3.8c-0.9,3.3-1.7,7.9-2.5,11.9c-0.5,2.7-1.1,5-1.8,6.6c-0.4,0.9-0.8,1.6-1.4,1.8
									c-0.3,0.1-0.6,0.2-1,0.1c-0.2-0.1-0.3-0.1-0.5-0.2c-0.4-0.3-0.9-0.7-1.2-1.2c-0.4-0.5-0.7-1.1-1-1.8c-0.6-1.3-1-2.9-1.5-4.7
									c-0.9-3.5-1.6-7.7-2.7-11.3c-0.7-2.4-1.5-4.6-2.6-6.1c-0.6-0.9-1.2-1.5-2-1.9c-0.1-0.1-0.3-0.2-0.4-0.2
									c-0.7-0.3-1.4-0.3-2,0c-0.6,0.3-1.2,0.9-1.7,1.7c-1.1,1.6-1.9,4.1-2.6,6.9c-1.3,5.5-2,12-2.2,14.7c-0.1,0.7-0.1,1.2-0.1,1.2
									c0,0.2-0.2,0.3-0.4,0.2c0,0,0,0,0,0c-0.2-0.1-0.3-0.4-0.3-0.6c0,0,0.7-12,3.2-19.4c0.9-2.5,1.9-4.4,3.3-5.3
									c0.8-0.5,1.7-0.6,2.7-0.1c0.2,0.1,0.3,0.2,0.5,0.3c0,0,0,0,0,0c1.2,0.7,2.2,1.9,3,3.3c0.8,1.5,1.5,3.2,2,5
									c1.1,3.7,1.9,7.9,2.7,11.4c0.6,2.3,1.2,4.4,1.9,5.7c0.4,0.7,0.8,1.2,1.2,1.5c0.1,0.1,0.2,0.1,0.3,0.1c0.3,0.1,0.5,0,0.8-0.2
									c0.3-0.2,0.6-0.5,0.8-1c0.5-1,1-2.5,1.4-4.2c0.9-3.5,1.6-8.2,2.5-12c0.6-2.6,1.2-4.8,2-6.2c0.5-0.8,1-1.3,1.6-1.4
									c0.3-0.1,0.7,0,1.1,0.2c0.6,0.3,1.2,1,1.8,1.9c1.7,2.7,3.3,4.3,4.7,5.1c1.1,0.7,2.2,0.8,3.2,0.3c1-0.4,1.8-1.4,2.6-2.9
									c0.9-1.7,1.6-4.1,2.1-7l-48.3-27.9l-0.2,52.9l51.7,29.8L641.1,353.6 M646.3,410c-0.4-0.2-0.7-0.8-0.7-1.2l0.1-42.6
									c0-0.4,0.3-0.6,0.7-0.4l2.3,1.3c0.4,0.2,0.7,0.8,0.7,1.2l-0.1,42.6c0,0.4-0.3,0.6-0.7,0.4L646.3,410 M637.8,350.8
									c0.3-2,0.6-4.3,0.8-6.8c0-0.2,0.2-0.3,0.4-0.2c0,0,0,0,0,0c0.2,0.1,0.3,0.4,0.3,0.6c-0.2,2.5-0.4,4.8-0.8,6.8l3.3,1.9
									l-0.2,54.6L588.5,377l0.2-54.6L637.8,350.8 M589.8,316.5c-0.4-0.2-0.7-0.8-0.7-1.2l0-2.7c0-0.5,0.3-0.6,0.7-0.4l17.8,10.3
									c0.4,0.2,0.7,0.8,0.7,1.2l0,2.7c0,0.4-0.3,0.6-0.7,0.4L589.8,316.5 M589.8,305.1c-0.4-0.2-0.7-0.8-0.7-1.2l0-2.7
									c0-0.4,0.3-0.6,0.7-0.4l37.1,21.4c0.4,0.2,0.7,0.8,0.7,1.2l0,2.7c0,0.4-0.3,0.6-0.7,0.4L589.8,305.1 M653.6,326.4
									l-71.1-41.1c-1.6-0.9-2.8-0.2-2.9,1.6l-0.3,93.4c0,1.8,1.3,4,2.8,4.9l71.1,41.1c1.6,0.9,2.8,0.2,2.8-1.6l0.3-93.4
									C656.5,329.5,655.2,327.3,653.6,326.4"/>
								<path class="st8" d="M582.3,385.3c-1.6-0.9-2.8-3.1-2.8-4.9l0.3-93.4c0-1.8,1.3-2.5,2.9-1.6l71.1,41.1
									c1.6,0.9,2.8,3.1,2.8,4.9l-0.3,93.4c0,1.8-1.3,2.5-2.8,1.6L582.3,385.3 M653.7,324.8l-71.1-41.1c-2.3-1.4-4.3-0.3-4.3,2.4
									l-0.3,93.4c0,2.7,1.9,6,4.2,7.4l71.1,41.1c2.3,1.4,4.3,0.3,4.3-2.4l0.3-93.4C657.9,329.5,656,326.2,653.7,324.8"/>
								<path class="st55" d="M626.9,322.2l-37.1-21.4c-0.4-0.2-0.7,0-0.7,0.4l0,2.7c0,0.4,0.3,1,0.7,1.2l37.1,21.4
									c0.4,0.2,0.7,0,0.7-0.4l0-2.7C627.6,323,627.3,322.5,626.9,322.2"/>
								<path class="st6" d="M648.8,367.1l-2.3-1.3c-0.4-0.2-0.7,0-0.7,0.4l-0.1,42.6c0,0.4,0.3,1,0.7,1.2l2.3,1.3
									c0.4,0.2,0.7,0,0.7-0.4l0.1-42.6C649.5,367.9,649.1,367.3,648.8,367.1"/>
								<path class="st56" d="M607.6,322.5l-17.8-10.3c-0.4-0.2-0.7,0-0.7,0.4l0,2.7c0,0.4,0.3,1,0.7,1.2l17.8,10.3
									c0.4,0.2,0.7,0,0.7-0.4l0-2.7C608.3,323.3,608,322.8,607.6,322.5"/>
								<path class="st8" d="M641.8,353.2l-3.3-1.9c0,0.3-0.1,0.5-0.1,0.7l2.7,1.5l-0.2,52.9l-51.7-29.8l0.2-52.9l48.3,27.9
									c0-0.2,0.1-0.5,0.1-0.7l-49.1-28.4l-0.2,54.6l53.1,30.7L641.8,353.2"/>
								<path class="st56" d="M638.9,343.8c-0.2-0.1-0.3,0-0.4,0.2c-0.2,2.5-0.4,4.8-0.8,6.8c0,0.3-0.1,0.5-0.1,0.7
									c-0.5,3-1.2,5.3-2.1,7c-0.8,1.5-1.6,2.5-2.6,2.9c-1,0.4-2,0.3-3.2-0.3c-1.4-0.8-3-2.5-4.7-5.1c-0.6-0.9-1.2-1.6-1.8-1.9
									c-0.4-0.2-0.8-0.3-1.1-0.2c-0.6,0.1-1.1,0.6-1.6,1.4c-0.8,1.4-1.4,3.7-2,6.2c-0.9,3.9-1.6,8.5-2.5,12
									c-0.4,1.8-0.9,3.2-1.4,4.2c-0.3,0.5-0.5,0.8-0.8,1c-0.3,0.2-0.5,0.2-0.8,0.2c-0.1,0-0.2-0.1-0.3-0.1
									c-0.4-0.3-0.8-0.7-1.2-1.5c-0.7-1.3-1.3-3.3-1.9-5.7c-0.9-3.5-1.6-7.7-2.7-11.4c-0.6-1.8-1.2-3.6-2-5
									c-0.8-1.4-1.8-2.7-3-3.3c0,0,0,0,0,0c-0.2-0.1-0.3-0.2-0.5-0.3c-1-0.4-1.9-0.3-2.7,0.1c-1.4,0.8-2.4,2.8-3.3,5.3
									c-2.6,7.4-3.2,19.4-3.2,19.4c0,0.2,0.1,0.5,0.3,0.6c0,0,0,0,0,0c0.2,0.1,0.4,0,0.4-0.2c0,0,0-0.4,0.1-1.2
									c0.2-2.6,0.8-9.2,2.2-14.7c0.7-2.8,1.5-5.2,2.6-6.9c0.5-0.8,1.1-1.4,1.7-1.7c0.6-0.3,1.3-0.3,2,0c0.1,0.1,0.3,0.1,0.4,0.2
									c0.7,0.4,1.4,1.1,2,1.9c1,1.5,1.9,3.7,2.6,6.1c1.1,3.6,1.8,7.8,2.7,11.3c0.4,1.8,0.9,3.4,1.5,4.7c0.3,0.7,0.6,1.2,1,1.8
									c0.4,0.5,0.8,0.9,1.2,1.2c0.2,0.1,0.3,0.2,0.5,0.2c0.4,0.1,0.7,0.1,1-0.1c0.6-0.3,1-0.9,1.4-1.8c0.7-1.6,1.3-4,1.8-6.6
									c0.8-4,1.6-8.6,2.5-11.9c0.5-1.7,1-3,1.6-3.8c0.3-0.4,0.6-0.7,0.9-0.8c0.3-0.1,0.6-0.1,0.9,0.1c0.4,0.2,0.8,0.7,1.4,1.5
									c1.8,2.8,3.5,4.7,5.2,5.6c1.3,0.8,2.6,0.9,3.6,0.4c1.6-0.7,2.9-2.7,3.9-5.7c0.4-1.3,0.8-2.9,1.1-4.6c0-0.2,0.1-0.5,0.1-0.7
									c0.3-2,0.6-4.3,0.8-6.8C639.3,344.3,639.1,344,638.9,343.8C638.9,343.8,638.9,343.8,638.9,343.8"/>
							</g>
						</g>
					</g>
				</g>
			</g>
		</g>
	</g>
	<g>
		<g>
			<g class="st1">
				<defs>
					<polygon id="SVGID_89_" class="st1" points="757.4,427.8 757.6,358 854.1,413.7 853.9,483.5 					"/>
				</defs>
				<clipPath id="SVGID_90_">
					<use xlink:href="#SVGID_89_"  style="overflow:visible;"/>
				</clipPath>
				<g class="st59">
					<g>
						<g>
							<g>
								<path class="st54" d="M781.3,426.4c-0.4-0.2-0.7-0.8-0.7-1.2l0.1-20.2c0-0.5,0.3-0.6,0.7-0.4l2,1.1c0.4,0.2,0.7,0.8,0.7,1.2
									l-0.1,20.2c0,0.5-0.3,0.6-0.7,0.4L781.3,426.4 M773.8,422c-0.4-0.2-0.7-0.8-0.7-1.2l0.1-35.6c0-0.5,0.3-0.6,0.7-0.4l2,1.1
									c0.4,0.2,0.7,0.8,0.7,1.2l-0.1,35.6c0,0.5-0.3,0.6-0.7,0.4L773.8,422 M790.2,388.5l-22.5-13l-0.1,47.8l22.5,13L790.2,388.5
									 M805.6,434.6c-0.4-0.2-0.7-0.8-0.7-1.2l0-2.3c0-0.4,0.3-0.6,0.7-0.4l4.4,2.5c0.4,0.2,0.7,0.8,0.7,1.2l0,2.3
									c0,0.4-0.3,0.6-0.7,0.4L805.6,434.6 M801.1,423.2c-0.4-0.2-0.7-0.8-0.7-1.2l0-2.3c0-0.4,0.3-0.6,0.7-0.4l9,5.2
									c0.4,0.2,0.7,0.8,0.7,1.2l0,2.3c0,0.4-0.3,0.6-0.7,0.4L801.1,423.2 M824.9,452.3c-5.4-5.7-8.8-13.8-8.8-20.5
									c0-3.9,1.2-6.9,3.3-8.7l3.8,5.8c-1.4,1.1-2.2,3.2-2.2,5.7c0,4.4,2.3,9.7,5.8,13.5c1.2,1.2,2.4,2.3,3.7,3
									c2.3,1.3,4.5,1.6,6.2,1l3.2,6.2c-2.6,1.1-6,0.5-9.4-1.4C828.6,455.7,826.7,454.2,824.9,452.3 M796.9,412
									c-0.4-0.2-0.7-0.8-0.7-1.2l0-2.3c0-0.5,0.3-0.6,0.7-0.4l13.2,7.6c0.4,0.2,0.7,0.8,0.7,1.2l0,2.3c0,0.5-0.3,0.6-0.7,0.4
									L796.9,412 M823.2,429l-3.8-5.8c2.8-2.3,6.9-2.1,11.2,0.4c8,4.6,14.5,15.8,14.4,25c0,4.9-1.9,8.4-5.1,9.7l-3.2-6.2
									c2.1-0.9,3.4-3.2,3.4-6.4c0-6-4.2-13.4-9.5-16.4C827.7,427.6,825,427.5,823.2,429 M813.3,406.3c-0.4-0.2-0.7-0.8-0.7-1.2
									l0-2.3c0-0.5,0.3-0.6,0.7-0.4l31,17.9c0.4,0.2,0.7,0.8,0.7,1.2l0,2.3c0,0.5-0.3,0.6-0.7,0.4L813.3,406.3 M766.9,423.8
									l0.1-49.5l23.9,13.8l-0.1,49.5L766.9,423.8 M849.9,412.9l-88-50.8c-1.6-0.9-2.8-0.2-2.8,1.6l-0.2,59.9c0,1.8,1.3,4,2.8,4.9
									l88,50.8c1.6,0.9,2.8,0.2,2.8-1.6l0.2-59.9C852.7,416,851.4,413.8,849.9,412.9"/>
								<path class="st8" d="M761.7,428.6c-1.6-0.9-2.8-3.1-2.8-4.9l0.2-59.9c0-1.8,1.3-2.5,2.8-1.6l88,50.8
									c1.6,0.9,2.8,3.1,2.8,4.9l-0.2,59.9c0,1.8-1.3,2.5-2.8,1.6L761.7,428.6 M849.9,411.3l-88-50.8c-2.3-1.4-4.3-0.3-4.3,2.4
									l-0.2,59.9c0,2.7,1.9,6,4.2,7.3l88,50.8c2.3,1.4,4.3,0.3,4.3-2.4l0.2-59.9C854.1,415.9,852.2,412.6,849.9,411.3"/>
								<path class="st6" d="M775.9,385.9l-2-1.1c-0.4-0.2-0.7,0-0.7,0.4l-0.1,35.6c0,0.5,0.3,1,0.7,1.2l2,1.1
									c0.4,0.2,0.7,0,0.7-0.4l0.1-35.6C776.6,386.7,776.3,386.2,775.9,385.9"/>
								<path class="st6" d="M844.3,420.3l-31-17.9c-0.4-0.2-0.7,0-0.7,0.4l0,2.3c0,0.5,0.3,1,0.7,1.2l31,17.9
									c0.4,0.2,0.7,0,0.7-0.4l0-2.3C845,421,844.7,420.5,844.3,420.3"/>
								<path class="st6" d="M783.4,405.7l-2-1.1c-0.4-0.2-0.7,0-0.7,0.4l-0.1,20.2c0,0.5,0.3,1,0.7,1.2l2,1.1
									c0.4,0.2,0.7,0,0.7-0.4l0.1-20.2C784.1,406.5,783.7,405.9,783.4,405.7"/>
								<path class="st50" d="M819.4,423.2c-2.1,1.7-3.3,4.8-3.3,8.7c0,6.7,3.4,14.8,8.8,20.5l1.9-4.1c-3.5-3.8-5.8-9-5.8-13.5
									c0-2.5,0.8-4.6,2.2-5.7L819.4,423.2"/>
								<path class="st56" d="M836.7,452.1c-1.7,0.7-3.9,0.4-6.2-1c-1.3-0.7-2.5-1.8-3.7-3l-1.9,4.1c1.8,1.9,3.7,3.4,5.6,4.5
									c3.4,2,6.8,2.5,9.4,1.4L836.7,452.1"/>
								<path class="st55" d="M830.6,423.6c-4.3-2.5-8.4-2.7-11.2-0.4l3.8,5.8c1.8-1.5,4.5-1.4,7.4,0.3c5.3,3,9.5,10.4,9.5,16.4
									c0,3.2-1.2,5.5-3.4,6.4l3.2,6.2c3.2-1.3,5.1-4.9,5.1-9.7C845.1,439.4,838.6,428.2,830.6,423.6"/>
								<path class="st8" d="M767.6,423.4l0.1-47.8l22.5,13l-0.1,47.8L767.6,423.4 M791,388.1L767,374.3l-0.1,49.5l23.9,13.8
									L791,388.1"/>
								<path class="st56" d="M810.1,415.7l-13.2-7.6c-0.4-0.2-0.7,0-0.7,0.4l0,2.3c0,0.5,0.3,1,0.7,1.2l13.2,7.6
									c0.4,0.2,0.7,0,0.7-0.4l0-2.3C810.8,416.5,810.5,415.9,810.1,415.7"/>
								<path class="st56" d="M810.1,424.5l-9-5.2c-0.4-0.2-0.7,0-0.7,0.4l0,2.3c0,0.4,0.3,1,0.7,1.2l9,5.2c0.4,0.2,0.7,0,0.7-0.4
									l0-2.3C810.8,425.2,810.5,424.7,810.1,424.5"/>
								<path class="st56" d="M810,433.3l-4.4-2.5c-0.4-0.2-0.7,0-0.7,0.4l0,2.3c0,0.4,0.3,1,0.7,1.2l4.4,2.5c0.4,0.2,0.7,0,0.7-0.4
									l0-2.3C810.8,434,810.4,433.5,810,433.3"/>
							</g>
						</g>
					</g>
				</g>
			</g>
		</g>
	</g>
</g>
<g id="Layer_5">
	<g>
		<path class="st60" d="M552.7,371.4c3.7,0.1,7.5-9.6,8.4-13.9s1.9-6.1,0-6.8c-1.9-0.7-4-1.2-6.1,3.3c-2.1,4.6-7.7,8.6-7.8,11.4
			C547.1,368.1,547.9,371.3,552.7,371.4z"/>
	</g>
	<g>
		<path class="st60" d="M557.1,366c0,2.9-2.4,5.3-5.3,5.3c-1.3,0-2.5-0.5-3.4-1.3l0,0c0,0,0,0,0,0c0,0-0.1,0-0.1-0.1
			c0,0-0.1-0.1-0.2-0.2c-1-0.9-3.9-3.5-7.5-10.9c-1.7-3.6-4.6-7.9-4.6-11.7v-0.1c0-0.1,0-0.2,0-0.3c0.2-3.4,1.6-6.4,5.1-6.4
			c2.4,0,4.7,1.8,5.8,3.7c0,0,0,0,0,0c0,0.1,0.3,0.6,0.6,1.4c0,0,0,0,0,0c1.9,4.3,8.5,16.7,8.9,18c0,0,0,0,0,0
			C556.8,364.3,557.1,365.1,557.1,366z"/>
	</g>
	<path class="st61" d="M554.6,345.5c3.9,0.8,5.8,2.2,6.7,3.2c0.9,1,1.6,1.8,0.7,3.1c-0.9,1.2-0.9,2.3-2.8,2.4
		c-1.8,0.1-3.5-0.5-5.1-1.5c-1.6-1,0.1-3-0.7-4.1C551.7,346.2,554.6,345.5,554.6,345.5z"/>
	<g>
		<path class="st62" d="M535,380.1c3.6-2.7,11.3-3.9,13.2,1.5c1.9,5.3,1.6,27.1,1.3,32.6s-0.6,22.9-1,26.2c-0.4,3.2-4.9,5.1-9.1,4.5
			c-2.7-0.4-1.4-5.1-1.7-16.7c-0.2-7.7-0.8-13.2-0.8-13.2s-1.2-14.7-3.3-21.5C532,388.7,531.5,382.6,535,380.1z"/>
	</g>
	<g>
		<path class="st60" d="M523.6,380.3c3.8-2.5,16-2.7,17.4,3c1.5,5.7-3.5,29.5-5.1,37.1c-1.2,5.6-1.6,24.5-3.5,31.3
			c-0.9,3.3-5.6,5.7-8.8,2.9c-3.2-2.8-3-7.8-2.4-19.5c0.4-8,1.1-17.2,1.1-17.2s-0.4-13.2-1.6-20.5
			C519.2,388.7,519.9,382.7,523.6,380.3z"/>
	</g>
	<g>
		<path class="st63" d="M520.1,380.1v6.3c0,0,2.4,2,7.7,2.7c4.6,0.6,9.9,0,13.9-0.9c4.2-1,7.2-3.4,7.2-3.4v-6.8
			c0,0-6.3,1.5-14.6,1.7C526,379.9,520.1,380.1,520.1,380.1z"/>
	</g>
	<path class="st55" d="M543.1,384.2c-2.8,1-6.4,1.9-10.3,1.8c-7.4-0.2-11.9-1.4-12.5-4.1c-0.2-1-0.2-2.4-0.2-3.9
		c0-1.1,0.1-2.4,0.1-3.8c0-1.1,0-2.3,0-3.6c0-0.6-0.1-1.2-0.1-1.8c-0.1-0.8-0.2-1.5-0.3-2.1c-1-4.2-3.7-7.5-3.5-14.7
		c0.2-8.7,3-8.5,10.9-12.9c0.8-0.4,1.6-0.7,2.6-0.8c2.9,2.6,7.7,7.1,8.8,9.9c0.2,0.5,0.4,1.2,0.7,2c0.1,0.3,0.2,0.5,0.2,0.8
		c0,0,0,0.1,0,0.1l0.2,0.6c0.5,1.9,1,4.2,1.4,6.5c0,0.2,0.1,0.5,0.1,0.7c0,0.2,0.1,0.5,0.1,0.7c0,0.2,0.1,0.5,0.1,0.7
		c0.1,0.8,0.3,1.5,0.4,2.3c0.1,0.3,0.1,0.7,0.2,1c0.2,1.3,0.3,2.5,0.4,3.5c0,0.1,0,0.2,0,0.4c0,0.2,0,0.4,0,0.6c0,0.2,0,0.4,0,0.7
		c0,0.2,0,0.4,0,0.6c0,0.5,0.1,1.1,0.1,1.8c0,0.2,0,0.5,0,0.7c0,0.3,0,0.5,0,0.8c0,0.6,0.1,1.2,0.1,1.9c0,0.6,0.1,1.3,0.1,2
		c0,0.7,0.1,1.3,0.1,2c0,0.1,0,0.2,0,0.3c0,0.7,0,1.4,0.1,2C543,382,543,383.2,543.1,384.2z"/>
	<path class="st64" d="M548.6,381.4c-1,0.7-3,1.8-5.5,2.8c-0.1-1.7-0.1-3.7-0.2-5.8c-0.1-1.3-0.1-2.7-0.2-4c0-1.2-0.1-2.3-0.1-3.4
		c-0.1-1.5-0.1-2.8-0.2-3.6c0-0.1,0-0.2,0-0.4c-0.5-5.1-2.2-14.8-3.8-18.8c-1.1-2.8-5.9-7.3-8.8-9.9c3.8-0.6,8.8,0.7,11.3,1.6
		c3.1,1.1,7.8,9.5,7.7,18.2c0,2.1,0.1,4.4,0.1,6.6c0,1.3,0.1,2.6,0.2,3.9c0.1,1.2,0.1,2.3,0.2,3.4c0.1,1.4,0.1,2.8,0.1,3.9
		C549.4,378.9,549.2,381,548.6,381.4z"/>
	<path class="st51" d="M549.4,376c-0.6,0.4-1.3,0.7-2,1c-1.7,0.6-3.1,1-4.4,1.4c-4.5,1.3-7.4,1.7-11.9,1.9
		c-4.2,0.2-8.7-1.4-10.9-2.4c0-1.1,0.1-2.4,0.1-3.8c2.5,0.7,7.8,2,10.8,1.9c3.7-0.2,8.3-0.9,11.8-1.7c1.7-0.4,3.2-0.8,4.1-1.2
		c0.9-0.4,1.7-0.8,2.4-1.1C549.3,373.5,549.4,374.8,549.4,376z"/>
	<path class="st51" d="M549.1,368.6c-0.6,0.3-1.2,0.6-1.9,0.9c-1.7,0.6-3.2,1.1-4.6,1.5c-4.4,1.3-7.3,1.7-11.8,1.9
		c-4.1,0.2-8.4-1.3-10.6-2.2c0-0.6-0.1-1.2-0.1-1.8c-0.1-0.8-0.2-1.5-0.3-2.1c2.4,0.7,7.9,2.1,11.1,1.9c3.6-0.2,8.1-0.9,11.6-1.7
		c1.8-0.4,3.4-0.8,4.4-1.2c0.8-0.3,1.5-0.7,2.2-1C548.9,366,549,367.3,549.1,368.6z"/>
	<g>
		<path class="st55" d="M526.4,351.3c-0.4-0.8-0.6-1.4-0.6-1.5C526,350.3,526.2,350.8,526.4,351.3z"/>
	</g>
	<g>
		<path class="st60" d="M534.7,371.9c0,2.9-2.4,5.3-5.3,5.3c-1.3,0-2.5-0.5-3.4-1.3l0,0c0,0,0,0,0,0c0,0-0.1,0-0.1-0.1
			c0,0-0.1-0.1-0.2-0.2c-1-0.9-2.8-4.3-6.7-11.5c-2.3-4.4-3.8-7.9-3.8-11.6v-0.1c0-0.1,0-0.2,0-0.3c0.2-3.4,1.5-6.6,4.9-6.6
			c2.4,0,4.3,2.3,5.4,4.2c0,0,0,0,0,0c0,0.1,0.3,0.6,0.6,1.4c0,0,0,0,0,0c1.9,4.3,7.5,17,7.9,18.2c0,0,0,0,0,0
			C534.4,370.2,534.7,371,534.7,371.9z"/>
	</g>
	<g>
		<path class="st55" d="M539.1,356c-0.2,0.2-0.4,0.4-0.6,0.6C538.9,356.3,539.1,356.1,539.1,356L539.1,356z"/>
	</g>
	<g>
		<path class="st60" d="M546.5,359.4c0,1.3-0.5,2.5-1.4,3.4c0,0-3.8,4.1-6.2,7.3c-2,2.7-4.2,5.8-7,6.4c0,0,0,0,0,0
			c-0.7,0.4-1.6,0.6-2.4,0.6c-2.9,0-5.3-2.4-5.3-5.3c0-1.4,0.5-2.7,1.4-3.6c1.1-1.7,5.9-5.1,6.9-6.1c0.8-0.8,4.2-4.3,5.6-5.8
			c0.3-0.3,0.5-0.6,0.6-0.6c0,0,0,0,0,0c0.8-0.7,1.9-1.1,3.1-1.1C544.4,354.7,546.5,356.8,546.5,359.4z"/>
	</g>
	<g>
		<path class="st60" d="M528.4,336.8c-0.8,0.1-2.6,2.5-2.6,3.3c0,2.2,3.8,7.8,3.8,7.8l5.6-4.4l6.6,1.5c0,0-2.5-3.6-3.5-5
			C536.7,337.8,534.1,335.9,528.4,336.8z"/>
	</g>
	<g>
		<path class="st63" d="M546.5,345.2l-1.3,19.3c-0.1,0.8,0.8,1.3,1.5,0.9l9.8-5.8c0.3-0.2,0.4-0.4,0.5-0.7l2.1-18.2
			c0.1-0.8-0.7-1.3-1.4-1l-10.6,4.7C546.7,344.5,546.5,344.8,546.5,345.2z"/>
	</g>
	<path class="st61" d="M542.8,353.1c-1.1,0.7-2.2,2.1-1.8,4c0.4,1.9,1.2,4.1,2.5,4.8c1.3,0.7,4.5-1.2,5.3-2.1
		c0.8-0.9,1.2-7.4,0.9-8.9C549.4,349.6,543.2,352.9,542.8,353.1z"/>
	<path class="st65" d="M529.2,336.7l0.7-8.4c0,0,1.3-2.1,4.7-2.1c3.5,0,5.8,1.3,6.3,3.2c0.5,2-1.8,9.7-2.8,11.2s-1.5,2.4-2.7,2.5
		c-1.3,0.1-3,0.2-4.7-1.7C529.1,339.7,529,337.9,529.2,336.7z"/>
	<path class="st61" d="M530.7,320.3c-2.1,2.3-2.2,6.2-1.9,8.4c0.4,2.3,1.8,7.8,3.5,9.1c1.8,1.4,3.8,3.8,6.2,3.9s3.8-2.6,4.8-5.5
		c1-2.9,3.2-9.4,2.1-12.5c-1.1-3.2-3.1-6.2-7.3-6.5S530.7,320.3,530.7,320.3z"/>
	<g>
		<path class="st63" d="M530.5,330.7c-0.1-4.2,3.2,4.5,4.6-3.9c0.3-1.9-1.5-5.9-4.6-5.9c-1.9,0-3.5,1.5-3,5.4c0.5,3.9,1,8.1,2.4,8.4
			C530.2,334.7,530.5,333.5,530.5,330.7z"/>
	</g>
	<path class="st61" d="M531.9,329.2c-0.2-0.1,0.1-2.9-1.6-2.8c-1.7,0.1-1.3,2.8-1.2,3.2c0.1,0.4,0.6,3.1,1.5,2.8
		C531.6,332.1,531.9,329.2,531.9,329.2z"/>
	<g>
		<g>
			<path class="st6" d="M530.5,318.4c0,0-2.1,0.7-3.4,2.1c-0.7,0.7-1.4,2.9-0.5,3.3c0.9,0.4,0.5,0,1.5,0.7c1,0.7,5.6,4.5,7,5.5
				c1.4,1,3.7,2.3,5.3,2.4c1.6,0,3.8-0.1,5.9-1.5c2.1-1.3,2.8-2.4,2.4-4.1c-0.4-1.6-1.7-3.4-4.1-5.2
				C542.2,319.7,535.9,317.3,530.5,318.4z"/>
		</g>
		<g>
			<path class="st50" d="M536.3,313.4c-2-0.1-4.8,0.9-6.4,3.2c-1.6,2.3-2.7,3.7-2.5,5.3c0.2,1.6,3.6,4.7,5.5,5.8
				c1.9,1.1,6.1,2.4,9.1,1.7s4.3-1.7,4.7-2.7s0.6-3.9-0.4-6.4C545.2,317.8,542.5,313.6,536.3,313.4z"/>
		</g>
		<g>
			<path class="st6" d="M531.8,314.8c0,0,0.2-0.7,2-1.5c1.3-0.6,3-0.5,3.7-0.3c0.7,0.2,4.5,1.2,6.5,4.2c2.2,3.6,2.8,6.5,2.6,8.3
				c-0.1,1.7-1.6,2.6-2.7,2.8c-1.1,0.1-2.5-0.6-2.7-2.4c-0.2-1.8-0.8-6.3-3.8-8.5C534.4,315.1,531.8,314.8,531.8,314.8z"/>
		</g>
		<path class="st6" d="M534.6,323.7c0.7-2.8,2.2-3.3,2.9-2.8c0.7,0.5,2.1,4,1.9,5.4c-0.2,1.4-2.7,0.8-3.7,0.4
			C534.8,326.2,534.3,325.1,534.6,323.7z"/>
	</g>
	<g>
		<path class="st63" d="M522.1,451.5c0,0,2.5-2.6,4.8-3.2c2.4-0.6,3.7-0.5,4.9,0.7c1.2,1.2,4.4,6.7,6.1,8.1c1.6,1.3,1.5,3.3,1.1,3.7
			s-1.8,2.9-6.1,2.3c-4.3-0.5-5.7-5.1-7.9-5.9s-2.4-1.6-2.9-3C521.7,452.9,522.1,451.5,522.1,451.5z"/>
	</g>
	<g>
		<path class="st63" d="M539,443.3c0,0,0.9,0.5,4.5-2.4c1.7-1.4,4.2-1.2,5.3-0.1c1.1,1.1,3.3,3.8,6.3,5.3c1.7,0.9,1.8,2.8,1.5,3.5
			c-0.3,0.7-1.6,2.4-5.5,2c-3.9-0.5-6.9-3-9.3-3.6c-2-0.5-2.4-1-2.9-2.1C538.5,444.6,539,443.3,539,443.3z"/>
	</g>
	
		<ellipse transform="matrix(0.2204 -0.9754 0.9754 0.2204 87.1922 814.1169)" class="st66" cx="552.9" cy="352.5" rx="2.7" ry="1.2"/>
</g>
<g id="Layer_8">
	<g>
		<path class="st67" d="M593.9,604.6c0,0,5.9-1.1,7.2,2.4c1.2,3.5-2.4,7.4-4.5,9.5c-2.1,2.1-3.1,5.5-2.1,8.6s4.9,7.5,4.1,10.7
			c-0.8,3.2-5.4,6.2-5.4,6.2"/>
		<path class="st68" d="M590.6,602.6c0,0,8-1.1,12.1,2c4.1,3.1,5.1,6.5,4.5,10.2s-7.8,19.8-17.4,25.1"/>
		<g>
			
				<ellipse transform="matrix(0.9156 -0.4021 0.4021 0.9156 -192.8141 284.7341)" class="st69" cx="581.8" cy="601.6" rx="4.3" ry="6.8"/>
		</g>
		<g>
			<polygon class="st69" points="560.2,606 579,595.4 584.5,607.8 565.7,618.5 			"/>
		</g>
		<g>
			<ellipse class="st70" cx="582.5" cy="604.6" rx="3" ry="3.6"/>
		</g>
		<g>
			
				<ellipse transform="matrix(0.2642 -0.9645 0.9645 0.2642 -199.0307 1011.8045)" class="st71" cx="563.6" cy="636.3" rx="6" ry="3.5"/>
			
				<ellipse transform="matrix(0.2642 -0.9645 0.9645 0.2642 -199.0307 1011.8045)" class="st71" cx="563.6" cy="636.3" rx="3.2" ry="1.9"/>
			
				<ellipse transform="matrix(0.2642 -0.9645 0.9645 0.2642 -199.5565 1008.5534)" class="st71" cx="561.2" cy="635.1" rx="6" ry="3.5"/>
			<polygon class="st71" points="563.1,629.4 565.6,630.7 562,642.2 559.6,640.9 			"/>
		</g>
		<g>
			<polygon class="st60" points="537,668.8 577.5,647.2 620.7,670.1 578.8,693.4 			"/>
		</g>
		<g>
			<polygon class="st62" points="537,673.3 578.8,697.9 578.8,693.4 537,668.8 			"/>
		</g>
		<g>
			<polygon class="st69" points="620.7,674.6 578.8,697.9 578.8,693.4 620.7,670.1 			"/>
		</g>
		<ellipse class="st72" cx="578.8" cy="689.7" rx="2.2" ry="1.2"/>
		<ellipse class="st72" cx="543.4" cy="668.8" rx="2.2" ry="1.2"/>
		<ellipse class="st72" cx="614.5" cy="670" rx="2.2" ry="1.2"/>
		<g>
			<g>
				<ellipse class="st62" cx="579" cy="668.4" rx="24.6" ry="12.8"/>
			</g>
			<g>
				<rect x="554.3" y="663" class="st62" width="49.3" height="5.5"/>
			</g>
			<g>
				<ellipse class="st73" cx="579" cy="663" rx="24.6" ry="12.8"/>
			</g>
		</g>
		<g>
			<g>
				<ellipse class="st62" cx="579" cy="661.9" rx="21.5" ry="11.1"/>
			</g>
			<g>
				<rect x="557.5" y="657.3" class="st62" width="42.9" height="4.6"/>
			</g>
			<g>
				<ellipse class="st73" cx="579" cy="657.3" rx="21.5" ry="11.1"/>
			</g>
		</g>
		<polygon class="st71" points="560.6,657 577.5,666.1 577.5,653.6 560.6,644.5 		"/>
		<polygon class="st8" points="597.3,654.4 577.5,666.1 577.5,653.6 597.3,641.9 		"/>
		<g>
			<polygon class="st73" points="597.3,641.9 580.4,632.8 560.6,644.5 577.5,653.6 			"/>
		</g>
		<g>
			<path class="st60" d="M593.9,602.7l-2.8,8.5l-22.3,36.5l-5.7-2.7l-0.3-0.2c-1.9-1-2.7-4.4-1.7-8.1c0.3-1.2,0.8-2.2,1.4-3.1v0
				l0.2-0.4l20-30.4l0.5-0.7l0.1-0.1v0c1.3-1.7,2.9-2.7,4.4-2.3c0.3,0.1,0.5,0.2,0.8,0.4L593.9,602.7z"/>
		</g>
		<g>
			<path class="st69" d="M596.1,611c-0.4,1.3-0.9,2.4-1.5,3.4l-0.1,0.1l-20.2,30.7c-1.3,2.1-3.2,3.3-4.8,2.9
				c-2.3-0.6-3.3-4.3-2.2-8.3c0.3-1.2,0.8-2.2,1.4-3.2v0l0.2-0.4l20-30.4l0.5-0.7l0.1-0.1v0c1.3-1.7,2.9-2.7,4.4-2.3
				C596.2,603.3,597.2,607,596.1,611z"/>
		</g>
		
			<ellipse transform="matrix(0.2642 -0.9645 0.9645 0.2642 -151.6453 1019.9003)" class="st72" cx="592.6" cy="609.3" rx="3.2" ry="1.9"/>
		<g>
			
				<ellipse transform="matrix(0.9156 -0.4021 0.4021 0.9156 -198.6965 278.0855)" class="st60" cx="563" cy="612.3" rx="4.3" ry="6.8"/>
		</g>
		<g>
			
				<ellipse transform="matrix(0.9156 -0.4021 0.4021 0.9156 -198.7482 278.0964)" class="st70" cx="563" cy="612.4" rx="2" ry="3.2"/>
		</g>
		<ellipse transform="matrix(0.9879 -0.155 0.155 0.9879 -94.51 96.7436)" class="st74" cx="573" cy="654.3" rx="0.8" ry="1.1"/>
		<ellipse transform="matrix(0.9879 -0.155 0.155 0.9879 -95.5855 96.8274)" class="st74" cx="573" cy="661.2" rx="0.8" ry="1.1"/>
		<ellipse transform="matrix(0.9879 -0.155 0.155 0.9879 -93.9046 95.2992)" class="st74" cx="564" cy="649.7" rx="0.8" ry="1.1"/>
		<ellipse transform="matrix(0.9879 -0.155 0.155 0.9879 -94.9122 95.3778)" class="st74" cx="564" cy="656.2" rx="0.8" ry="1.1"/>
		<polygon class="st74" points="592.6,649.4 583.5,654.9 583.5,652.9 592.6,647.5 		"/>
		<polygon class="st74" points="592.6,654.2 583.5,659.6 583.5,657.7 592.6,652.2 		"/>
		<g>
			
				<rect x="578.4" y="620.4" transform="matrix(0.8398 0.5429 -0.5429 0.8398 432.8969 -215.2471)" class="st68" width="5.4" height="10.9"/>
			
				<rect x="582.4" y="619" transform="matrix(0.8398 0.5429 -0.5429 0.8398 430.1853 -218.4025)" class="st68" width="5.4" height="1.3"/>
			
				<rect x="583.8" y="616.9" transform="matrix(0.8398 0.5429 -0.5429 0.8398 429.2513 -219.4893)" class="st68" width="5.4" height="1.3"/>
		</g>
		<g>
			
				<ellipse transform="matrix(0.2642 -0.9645 0.9645 0.2642 -196.7387 1023.8932)" class="st71" cx="572.7" cy="640.9" rx="6" ry="3.5"/>
			<polygon class="st71" points="574.3,635.1 576.7,636.4 573.5,648 571.1,646.7 			"/>
			
				<ellipse transform="matrix(0.2642 -0.9645 0.9645 0.2642 -196.2129 1027.1443)" class="st8" cx="575.1" cy="642.2" rx="6" ry="3.5"/>
			<g>
				
					<ellipse transform="matrix(0.2642 -0.9645 0.9645 0.2642 -196.2129 1027.1443)" class="st70" cx="575.1" cy="642.2" rx="3.2" ry="1.9"/>
			</g>
		</g>
		<g>
			<polygon class="st70" points="561.7,609.5 555.4,613.1 557.9,619 564.3,615.3 			"/>
		</g>
		<g>
			
				<ellipse transform="matrix(0.2642 -0.9645 0.9645 0.2642 -203.0987 978.366)" class="st71" cx="539.7" cy="622.3" rx="6.6" ry="3.9"/>
			
				<ellipse transform="matrix(0.2642 -0.9645 0.9645 0.2642 -203.9768 973.285)" class="st71" cx="535.9" cy="620.3" rx="6.6" ry="3.9"/>
			<polygon class="st71" points="537.7,613.9 541.4,615.9 537.9,628.7 534.2,626.7 			"/>
		</g>
		<g>
			
				<ellipse transform="matrix(0.9156 -0.4021 0.4021 0.9156 -200.9736 275.5309)" class="st69" cx="555.8" cy="616.4" rx="4.3" ry="6.8"/>
		</g>
		<g>
			<g>
				<polygon class="st8" points="545.7,649.8 544,650.9 544,641.3 545.7,640.2 				"/>
				<polygon class="st71" points="544,650.9 542.8,650.6 542.8,641 544,641.3 				"/>
				<polygon class="st8" points="541.7,648.8 540,649.9 540,640.3 541.7,639.2 				"/>
				<polygon class="st71" points="540,649.9 538.9,649.6 538.9,639.9 540,640.3 				"/>
			</g>
			<g>
				<ellipse class="st70" cx="542.2" cy="640.5" rx="4.4" ry="2.3"/>
			</g>
			<g>
				<rect x="537.8" y="635.7" class="st70" width="8.8" height="4.8"/>
			</g>
			<g>
				<ellipse class="st62" cx="542.2" cy="635.4" rx="5.5" ry="2.9"/>
			</g>
			<g>
				<rect x="536.7" y="628.3" class="st62" width="11.1" height="7.2"/>
			</g>
		</g>
		<g>
			<ellipse class="st73" cx="542.2" cy="628.3" rx="5.5" ry="2.9"/>
		</g>
		<g>
			<polygon class="st69" points="539.8,617.9 553,610.2 558.5,622.7 545.3,630.4 			"/>
		</g>
		<g>
			
				<ellipse transform="matrix(0.9156 -0.4021 0.4021 0.9156 -205.1873 270.8824)" class="st60" cx="542.6" cy="624.1" rx="4.3" ry="6.8"/>
		</g>
		<g>
			
				<ellipse transform="matrix(0.2642 -0.9645 0.9645 0.2642 -201.7495 985.5345)" class="st71" cx="545.1" cy="625" rx="6.6" ry="3.9"/>
			<polygon class="st71" points="546.8,618.6 550.6,620.6 547.1,633.4 543.3,631.4 			"/>
			
				<ellipse transform="matrix(0.2642 -0.9645 0.9645 0.2642 -200.8714 990.6155)" class="st8" cx="548.8" cy="627" rx="6.6" ry="3.9"/>
			<g>
				
					<ellipse transform="matrix(0.2642 -0.9645 0.9645 0.2642 -200.8714 990.6155)" class="st70" cx="548.8" cy="627" rx="3.6" ry="2.1"/>
			</g>
		</g>
	</g>
</g>
<g id="Layer_9">
	<g>
		<g>
			<g>
				<polygon class="st62" points="763.1,607.4 655.8,545.4 655.8,538.9 763.1,600.9 				"/>
			</g>
			<g>
				<polygon class="st69" points="802.5,584 763.1,607.4 763.1,600.9 802.5,577.6 				"/>
			</g>
			<g>
				<polygon class="st60" points="802.5,577.6 695.3,515.6 655.8,538.9 763.1,600.9 				"/>
			</g>
		</g>
		<g>
			<g>
				<polygon class="st62" points="691.3,553.9 675.1,544.9 675.1,542.8 691.3,551.8 				"/>
			</g>
			<g>
				<polygon class="st69" points="707.9,544.2 691.3,553.9 691.3,551.8 707.9,542.1 				"/>
			</g>
			<g>
				<polygon class="st60" points="675.1,542.8 691.3,551.8 707.9,542.1 691.6,533.1 				"/>
			</g>
		</g>
		<g>
			<polygon class="st62" points="685,548.3 675.1,542.8 675.1,532.7 685,538.2 			"/>
		</g>
		<g>
			<polygon class="st70" points="701.5,538.5 685,548.3 685,538.2 701.5,528.5 			"/>
		</g>
		<ellipse class="st72" cx="691.5" cy="548" rx="2.4" ry="1.2"/>
		<ellipse class="st72" cx="763.1" cy="595.9" rx="2.4" ry="1.2"/>
		<ellipse class="st72" cx="662.2" cy="538.5" rx="2.4" ry="1.2"/>
		<ellipse class="st72" cx="795.5" cy="577.2" rx="2.4" ry="1.2"/>
		<ellipse class="st72" cx="701.5" cy="542.1" rx="2.4" ry="1.2"/>
		<g>
			<path class="st60" d="M684.2,540.5c0,0-1.1,0.8-6.2-1.7s-7.8-4.9-7.8-4.9s-3.3-3.9-2.7-11.2s3.7-12.3,5.6-15.5s4.4-6.1,5.6-8.7
				s0.4-8.4,0.4-8.4l16.6-1.4v21v20.8L684.2,540.5z"/>
		</g>
		<g>
			<path class="st69" d="M688.6,539.6c-6.7,3.2-10.9-2-10.9-2s-3.3-3.9-2.7-11.2s3.7-12.3,5.6-15.5s4.4-6.1,5.6-8.7s0.4-8.4,0.4-8.4
				l10.9-3.1l-0.3,9.5c0,0,9.1,1.7,9.1,12.7c0,4.5-1.1,15.8-6.3,20.1C697.5,534.9,693.7,537.1,688.6,539.6z"/>
		</g>
		<g>
			<ellipse class="st62" cx="688.2" cy="490.9" rx="11.4" ry="6.7"/>
		</g>
		<g>
			<rect x="676.7" y="488.7" class="st62" width="22.9" height="2.5"/>
		</g>
		<g>
			<ellipse class="st60" cx="688.2" cy="488.7" rx="11.4" ry="6.7"/>
		</g>
		<g>
			<ellipse class="st70" cx="688.2" cy="488.7" rx="8" ry="4.7"/>
		</g>
		<g>
			
				<ellipse transform="matrix(0.4351 -0.9004 0.9004 0.4351 -76.5284 917.2222)" class="st69" cx="692.7" cy="519.6" rx="17.2" ry="11.1"/>
		</g>
		
			<ellipse transform="matrix(0.4351 -0.9004 0.9004 0.4351 -76.6616 918.737)" class="st70" cx="693.9" cy="520.5" rx="17.2" ry="11.1"/>
		
			<ellipse transform="matrix(0.4351 -0.9004 0.9004 0.4351 -76.6519 919.8491)" class="st72" cx="694.7" cy="521" rx="13.9" ry="9.1"/>
		<g>
			
				<ellipse transform="matrix(0.4351 -0.9004 0.9004 0.4351 -76.5143 920.0683)" class="st62" cx="695" cy="521" rx="11.8" ry="7.7"/>
		</g>
		<path class="st71" d="M717,527.7l1,8.4l-6,2.2l-6.8,3.5l-11.3-6.1v-9.4c0.1-1.5,0.5-3.2,1.3-4.8c2.2-4.6,6.4-7.1,9.4-5.7l0.3,0.2
			l11,6L717,527.7z"/>
		<ellipse transform="matrix(0.866 -0.5 0.5 0.866 -172.1678 420.582)" class="st74" cx="698.7" cy="531.6" rx="2.1" ry="3.2"/>
		<path class="st75" d="M712.3,520c0,0-0.8-0.2-2,0.1c-4.7,1.3-7.1,6.6-7.1,6.6l-5.6-2.8c0,0,2.3-5.9,6.8-6.9c1.3-0.3,2.4,0,2.4,0"
			/>
		<g>
			<polygon class="st62" points="710.1,556.3 705.1,553.8 705.1,551.6 710.1,554.2 			"/>
		</g>
		<g>
			<polygon class="st69" points="722.9,548.9 710.1,556.3 710.1,554.2 722.9,546.8 			"/>
		</g>
		<polygon class="st70" points="718,544.2 705.1,551.6 705.1,532.9 718,525.5 		"/>
		<g>
			<polygon class="st60" points="722.9,546.8 718,544.2 705.1,551.6 710.1,554.2 			"/>
		</g>
		<g>
			
				<ellipse transform="matrix(0.4351 -0.9004 0.9004 0.4351 -75.2827 940.4987)" class="st69" cx="711.9" cy="530.2" rx="9.2" ry="6"/>
		</g>
		<g>
			
				<rect x="703.5" y="529.8" transform="matrix(0.434 -0.9009 0.9009 0.434 -74.6933 942.3346)" class="st69" width="18.4" height="1.7"/>
		</g>
		<ellipse transform="matrix(0.4351 -0.9004 0.9004 0.4351 -75.0847 942.2886)" class="st8" cx="713.4" cy="531" rx="9.2" ry="6"/>
		<g>
			
				<ellipse transform="matrix(0.4351 -0.9004 0.9004 0.4351 -75.3553 942.8211)" class="st62" cx="713.7" cy="531.5" rx="2.5" ry="1.6"/>
		</g>
		<ellipse transform="matrix(0.4351 -0.9004 0.9004 0.4351 -70.8078 939.082)" class="st74" cx="713" cy="526" rx="1.5" ry="1"/>
		
			<ellipse transform="matrix(0.4351 -0.9004 0.9004 0.4351 -68.2187 942.2205)" class="st74" cx="716.8" cy="525.5" rx="1.5" ry="1"/>
		
			<ellipse transform="matrix(0.4351 -0.9004 0.9004 0.4351 -70.8671 945.2764)" class="st74" cx="717.9" cy="529.1" rx="1.5" ry="1"/>
		
			<ellipse transform="matrix(0.4351 -0.9004 0.9004 0.4351 -75.4404 946.7513)" class="st74" cx="716.8" cy="533.5" rx="1.5" ry="1"/>
		
			<ellipse transform="matrix(0.4351 -0.9004 0.9004 0.4351 -79.6619 945.7574)" class="st74" cx="713.9" cy="536.4" rx="1.5" ry="1"/>
		
			<ellipse transform="matrix(0.4351 -0.9004 0.9004 0.4351 -82.0198 942.6039)" class="st74" cx="710.2" cy="536.7" rx="1.5" ry="1"/>
		
			<ellipse transform="matrix(0.4351 -0.9004 0.9004 0.4351 -79.6931 939.4375)" class="st74" cx="708.8" cy="533.2" rx="1.5" ry="1"/>
		
			<ellipse transform="matrix(0.4351 -0.9004 0.9004 0.4351 -75.2203 938.3379)" class="st74" cx="710.2" cy="529.1" rx="1.5" ry="1"/>
		<g>
			<g>
				
					<ellipse transform="matrix(0.4351 -0.9004 0.9004 0.4351 -75.3373 942.9469)" class="st70" cx="713.8" cy="531.5" rx="1.1" ry="0.7"/>
				<polygon class="st70" points="714.3,530.5 720,533.7 718.9,535.5 713.3,532.5 				"/>
			</g>
			<g>
				<g>
					
						<ellipse transform="matrix(0.4351 -0.9004 0.9004 0.4351 -75.2588 948.3932)" class="st62" cx="718.2" cy="534.2" rx="3" ry="1.9"/>
				</g>
				
					<rect x="717.3" y="532.8" transform="matrix(0.4351 -0.9004 0.9004 0.4351 -74.984 950.8781)" class="st62" width="6" height="4.7"/>
				
					<ellipse transform="matrix(0.4351 -0.9004 0.9004 0.4351 -74.7091 953.3631)" class="st8" cx="722.4" cy="536.2" rx="3" ry="1.9"/>
				<g>
					
						<ellipse transform="matrix(0.4351 -0.9004 0.9004 0.4351 -74.7091 953.3631)" class="st70" cx="722.4" cy="536.2" rx="1.1" ry="0.7"/>
					<polygon class="st70" points="722.9,535.2 728.6,538.4 727.5,540.2 721.9,537.2 					"/>
				</g>
			</g>
		</g>
		<ellipse class="st72" cx="710.1" cy="551.5" rx="1.5" ry="0.8"/>
		<ellipse class="st72" cx="718" cy="546.8" rx="1.5" ry="0.8"/>
		<g>
			<polygon class="st62" points="753.1,591.8 716.8,570.9 716.8,562 753.1,582.9 			"/>
		</g>
		<g>
			<polygon class="st69" points="767.5,576.6 753.1,584.2 753.1,582.9 767.5,575.3 			"/>
		</g>
		<g>
			<polygon class="st69" points="754.5,583.4 753.1,584.2 753.1,591.8 754.5,591 			"/>
		</g>
		<g>
			<polygon class="st60" points="716.8,562 736.1,551.5 776.1,570.7 753.1,582.9 			"/>
		</g>
		<g>
			
				<ellipse transform="matrix(0.4351 -0.9004 0.9004 0.4351 -74.9453 968.5463)" class="st69" cx="734.4" cy="544" rx="17.1" ry="11.1"/>
		</g>
		<g>
			<polygon class="st69" points="773.8,546 741.9,528.6 727,559.4 758.9,576.8 			"/>
		</g>
		<path class="st75" d="M747.7,531.8c-5.5-2.7-13.3,2.1-17.5,10.6s-3,17.6,2.6,20.3"/>
		<g>
			<polygon class="st62" points="761.3,582.5 751.4,577 751.4,552.7 761.3,558.2 			"/>
		</g>
		<g>
			<polygon class="st60" points="782.4,546 772.5,540.5 751.4,552.7 761.3,558.2 			"/>
		</g>
		<g>
			<polygon class="st69" points="782.4,546 782.4,570.2 761.3,582.5 761.3,558.2 			"/>
		</g>
		
			<ellipse transform="matrix(0.4351 -0.9004 0.9004 0.4351 -72.0511 1014.5705)" class="st70" cx="772.5" cy="564.7" rx="14.1" ry="9.2"/>
		
			<rect x="760.6" y="563.3" transform="matrix(0.4351 -0.9004 0.9004 0.4351 -71.7701 1017.1111)" class="st70" width="28.2" height="4.8"/>
		<g>
			
				<ellipse transform="matrix(0.4351 -0.9004 0.9004 0.4351 -71.5147 1019.4198)" class="st69" cx="776.7" cy="566.7" rx="14.1" ry="9.2"/>
		</g>
		
			<ellipse transform="matrix(0.4351 -0.9004 0.9004 0.4351 -71.277 1021.5687)" class="st72" cx="778.5" cy="567.6" rx="8.4" ry="5.4"/>
	</g>
</g>
<g id="Layer_14">
	<g>
		<g>
			<path class="st70" d="M293.9,534.1c0,0-9-11.8-7.3-28.7s11.9-22.7,18.6-24.9c6.7-2.2,12.4-2.8,21.4-2.1c9,0.8,12.2,22.8,4.1,37.5
				C322.6,530.6,304,540.7,293.9,534.1z"/>
		</g>
		<g>
			<ellipse transform="matrix(0.5 -0.866 0.866 0.5 -283.7579 527.3726)" class="st62" cx="314.8" cy="509.4" rx="38.9" ry="22.6"/>
		</g>
		<g>
			<polygon class="st62" points="295.4,543.1 377.6,590.5 416.9,523.5 334.7,476 			"/>
		</g>
		<g>
			<polygon class="st60" points="285.2,565.4 357.7,607.4 379.7,594.4 307.2,552.6 			"/>
		</g>
		<g>
			<polygon class="st70" points="294.6,565.1 357.4,601.2 377.6,589.3 314.7,553.4 			"/>
		</g>
		<g>
			<polygon class="st62" points="357.7,607.4 357.7,615.7 285.2,573.6 285.2,565.4 			"/>
		</g>
		<g>
			<polygon class="st73" points="379.7,535.8 379.7,544.1 307.2,502 307.2,493.8 			"/>
		</g>
		<g>
			<polygon class="st69" points="379.7,594.4 379.7,602.8 357.7,615.7 357.7,607.4 			"/>
		</g>
		<g>
			<g>
				<path d="M413.7,552.1v0.2c0.8,0,1.5,0.2,2.1,0.5c3.2,1.8,3.1,7.8,0,13.3c-2.5,4.3-6.3,7.2-9.4,7.2c-0.8,0-1.5-0.2-2.1-0.5
					c-1.5-0.9-2.3-2.7-2.3-5.2c0-2.5,0.8-5.4,2.4-8.1c2.5-4.3,6.3-7.2,9.4-7.2V552.1 M413.7,552.1c-3.1,0-7,2.8-9.6,7.4
					c-3.3,5.6-3.2,11.8,0,13.7c0.7,0.4,1.4,0.6,2.2,0.6c3.1,0,7-2.8,9.6-7.4c3.3-5.6,3.2-11.8,0-13.7
					C415.2,552.3,414.5,552.1,413.7,552.1L413.7,552.1z"/>
			</g>
		</g>
		<g>
			<polygon class="st62" points="357.9,580.8 364.8,585.1 355.6,598.7 348.6,594.7 			"/>
		</g>
		<g>
			<polygon class="st60" points="298.1,507.3 370.6,549.4 379.7,544.1 307.2,502 			"/>
		</g>
		<g>
			<polygon class="st60" points="306.8,482.1 357.7,511.3 357.7,523 313.4,497.6 			"/>
		</g>
		<g>
			<polygon class="st73" points="306.8,482.1 357.7,511.3 376.3,500 325.8,470.9 			"/>
		</g>
		<g>
			<g>
				<polygon class="st60" points="384.2,522.4 384.2,538.5 357.7,523 357.7,507 				"/>
			</g>
			<g>
				<polygon class="st70" points="411.8,506.1 411.8,522.4 384.2,538.5 384.2,522.4 				"/>
			</g>
			<g>
				<polygon class="st73" points="357.7,507 385.2,490.9 411.8,506.1 384.2,522.4 				"/>
			</g>
		</g>
		<g>
			<polygon class="st60" points="306.8,482.1 301.2,490.3 313.4,497.6 			"/>
		</g>
		<g>
			<polygon class="st69" points="345.3,524.1 336.1,529.5 345.3,515.9 			"/>
		</g>
		<g>
			<polygon class="st69" points="361.4,533.5 352.2,539 361.4,525.3 			"/>
		</g>
		<g>
			<polygon class="st69" points="324,511.7 314.8,517.2 324,503.5 			"/>
		</g>
		<g>
			<polygon class="st62" points="318.6,500.3 324,503.5 314.8,517.2 309.4,514 			"/>
		</g>
		<path class="st71" d="M388.5,577.1c-9.9,8.7-21,12.1-28.8,7.5c-6.6-3.8-9.5-12.4-8.7-22.7c0.5-6.4,2.4-13.5,5.7-20.6l3.4,2
			c-7.5,16.8-6.3,33.5,3.5,39.1C370.3,586.3,379.7,583.9,388.5,577.1z"/>
		<g>
			<polygon class="st62" points="331.6,507.9 345.3,515.9 336.1,529.5 322.4,521.5 			"/>
		</g>
		<g>
			<polygon class="st62" points="327.5,563.5 341.2,571.5 332,585.1 318.2,577.3 			"/>
		</g>
		<g>
			<polygon class="st62" points="354.5,521.1 361.4,525.3 352.2,539 345.3,534.7 			"/>
		</g>
		<g>
			<polygon class="st62" points="306.3,551.5 313.2,555.7 304.1,569.2 297.1,565.1 			"/>
		</g>
		<path class="st8" d="M359.6,584.6l-51.9-30c-10.7-6.2-11.7-24.9-2.9-43.5l42,24.4l9.9,5.7c-3.3,7.1-5.2,14.2-5.7,20.6
			C350.1,572.2,353,580.8,359.6,584.6z"/>
		<g>
			<polygon class="st73" points="364.9,537.4 367,538.6 367,608.2 364.9,607 			"/>
		</g>
		<g>
			<polygon class="st69" points="423,505.6 423,575.5 367,608.2 367,538.6 			"/>
		</g>
		<g>
			<ellipse transform="matrix(0.5 -0.866 0.866 0.5 -283.7785 622.2541)" class="st60" cx="397" cy="556.9" rx="38.9" ry="22.6"/>
		</g>
		<g>
			<polygon class="st60" points="423,505.6 421,504.4 364.9,537.4 367,538.6 			"/>
		</g>
		<g>
			<polygon class="st60" points="377.6,590.5 388,596.5 426.8,529.2 416.9,523.5 			"/>
		</g>
		<g>
			<ellipse transform="matrix(0.5 -0.866 0.866 0.5 -283.7785 634.2582)" class="st69" cx="407.4" cy="562.9" rx="38.9" ry="22.6"/>
		</g>
		<g>
			<g>
				<path d="M417.4,541.4L417.4,541.4c1.6,0,3,0.4,4.3,1.1c6.5,3.7,6.5,15.9,0,27.1c-5.1,8.8-12.8,14.7-19.2,14.7
					c-1.6,0-3-0.4-4.3-1.1c-6.5-3.7-6.5-15.9,0-27.1C403.3,547.3,411,541.4,417.4,541.4 M417.4,541.2c-6.3,0-14.2,5.7-19.4,14.8
					c-6.6,11.4-6.5,23.7,0.1,27.5c1.3,0.8,2.8,1.1,4.4,1.1c6.3,0,14.2-5.7,19.4-14.8c6.6-11.4,6.5-23.7-0.1-27.5
					C420.5,541.6,419,541.2,417.4,541.2L417.4,541.2z"/>
			</g>
		</g>
		<ellipse transform="matrix(0.5 -0.866 0.866 0.5 -282.4865 636.496)" class="st71" cx="410" cy="562.9" rx="23.7" ry="13.8"/>
		<g>
			<ellipse transform="matrix(0.5 -0.866 0.866 0.5 -282.4865 636.496)" class="st69" cx="410" cy="562.9" rx="9.8" ry="5.7"/>
		</g>
		<g>
			<ellipse transform="matrix(0.5 -0.866 0.866 0.5 -282.4865 636.496)" class="st70" cx="410" cy="562.9" rx="5.1" ry="3"/>
		</g>
		
			<ellipse transform="matrix(0.2642 -0.9645 0.9645 0.2642 -249.4196 758.2774)" class="st72" cx="372.3" cy="542.6" rx="3" ry="1.8"/>
		
			<ellipse transform="matrix(0.2642 -0.9645 0.9645 0.2642 -304.3801 800.2059)" class="st72" cx="372.3" cy="599.6" rx="3" ry="1.8"/>
		
			<ellipse transform="matrix(0.2642 -0.9645 0.9645 0.2642 -187.7415 782.1792)" class="st72" cx="418.8" cy="514.1" rx="3" ry="1.8"/>
		<polygon class="st72" points="318.9,485.5 332.7,477.4 339.7,481.4 325.8,489.6 		"/>
		<polygon class="st72" points="328,490.8 341.8,482.7 348.8,486.7 334.9,494.9 		"/>
		<polygon class="st72" points="345.3,500.4 359.1,492.3 366.1,496.3 352.3,504.4 		"/>
		<g>
			<rect x="413.3" y="558" transform="matrix(0.5 -0.866 0.866 0.5 -282.4865 646.2242)" class="st70" width="10.3" height="19.5"/>
		</g>
		<ellipse transform="matrix(0.5 -0.866 0.866 0.5 -282.4865 655.9525)" class="st8" cx="426.8" cy="572.6" rx="5.1" ry="3"/>
		<rect x="422.9" y="571.9" transform="matrix(0.5 -0.866 0.866 0.5 -282.4865 657.303)" class="st8" width="10.3" height="2.7"/>
		<ellipse transform="matrix(0.5 -0.866 0.866 0.5 -282.4865 658.6537)" class="st71" cx="429.2" cy="574" rx="5.1" ry="3"/>
		<ellipse transform="matrix(0.5 -0.866 0.866 0.5 -282.4865 660.5619)" class="st8" cx="430.8" cy="574.9" rx="3.3" ry="1.9"/>
		<line class="st76" x1="410.1" y1="545.9" x2="410.1" y2="553.1"/>
		<line class="st76" x1="412" y1="544.7" x2="412" y2="551.9"/>
		<line class="st76" x1="407.9" y1="546.9" x2="407.9" y2="554.1"/>
		<line class="st76" x1="410.1" y1="572.8" x2="410.1" y2="580"/>
		<line class="st76" x1="412" y1="571.7" x2="412" y2="578.9"/>
		<line class="st76" x1="407.9" y1="573.8" x2="407.9" y2="581"/>
		<line class="st76" x1="306.1" y1="519.3" x2="347.9" y2="543.5"/>
		<line class="st76" x1="304.3" y1="524" x2="346.1" y2="548.3"/>
		<line class="st76" x1="303.1" y1="529.1" x2="345" y2="553.4"/>
		<line class="st76" x1="302.6" y1="534.1" x2="344.4" y2="558.4"/>
		<line class="st76" x1="303.1" y1="539.8" x2="345" y2="564.1"/>
		<line class="st76" x1="304.3" y1="545.4" x2="346.1" y2="569.7"/>
		<line class="st76" x1="306.1" y1="550.7" x2="347.9" y2="575"/>
	</g>
</g>
</svg>
